<svg width="141" height="196" viewBox="0 0 141 196" fill="none" xmlns="http://www.w3.org/2000/svg">
<path d="M63.1598 79.582L52.6518 74.2795L41.1128 80.0355L51.9098 85.4555L63.1598 79.582ZM67.9803 82.0155L78.9998 87.58L67.5683 93.3185L56.7558 87.891L67.9803 82.0155ZM82.6988 74.3575L94.0213 80.035L83.8943 85.119L72.8533 79.5485L82.6988 74.3575ZM77.8258 71.912L67.6323 66.8005L57.5503 71.8335L68.0543 77.1285L77.8258 71.912ZM69.8573 115.803V129.711L82.2048 123.549L82.1933 109.635L69.8573 115.803ZM82.1873 104.778L82.1738 91.01L69.8573 97.133V110.907L82.1873 104.778ZM97.0098 102.199V116.162L86.4768 121.416L86.4688 107.518L97.0098 102.199ZM97.0098 97.3165V83.633L86.4573 88.879L86.4653 102.674L97.0098 97.3165Z" fill="#4CABCF"/>
<path d="M65.498 97.133L57.1835 92.9495V111.02C57.1835 111.02 47.0095 89.378 46.07 87.4325C45.949 87.1805 45.449 86.907 45.322 86.8385C43.488 85.8815 38.1445 83.1765 38.1445 83.1765V115.112L45.537 119.075V102.375C45.537 102.375 55.6015 121.713 55.705 121.926C55.81 122.137 56.8145 124.172 57.8965 124.889C59.3315 125.842 65.494 129.547 65.494 129.547L65.498 97.133Z" fill="#4C75CF"/>
<mask id="mask0_0_1" style="mask-type:alpha" maskUnits="userSpaceOnUse" x="85" y="132" width="48" height="64">
<path d="M130.33 132C131.804 132 133 133.195 133 134.67V193.33C133 194.804 131.804 196 130.33 196H87.6667C86.1939 196 85 194.806 85 193.333V166.667C85 165.194 86.1939 164 87.6667 164H98V150.667C98 149.194 99.1939 148 100.667 148H111V134.67C111 133.195 112.195 132 113.67 132H130.33Z" fill="white"/>
</mask>
<g mask="url(#mask0_0_1)">
<path d="M133 134.67V193.33C133 194.804 131.804 196 130.33 196H113.67C112.195 196 111 194.804 111 193.33V134.67C111 133.195 112.195 132 113.67 132H130.33C131.805 132 133 133.195 133 134.67Z" fill="url(#paint0_linear_0_1)"/>
<g filter="url(#filter0_dd_0_1)">
<path d="M120 150.667V196H98V150.667C98 149.194 99.1939 148 100.667 148H117.333C118.806 148 120 149.194 120 150.667Z" fill="url(#paint1_linear_0_1)"/>
</g>
<path d="M85 166.667V193.333C85 194.806 86.1939 196 87.6667 196H107V166.667C107 165.194 105.806 164 104.333 164H87.6667C86.1939 164 85 165.194 85 166.667Z" fill="url(#paint2_linear_0_1)"/>
</g>
<path d="M58.6668 20H37.3335V32H58.6668V20Z" fill="#21A366"/>
<path d="M58.6667 32H16V53.3333C16 54.8067 17.1933 56 18.6667 56H56C57.4733 56 58.6667 54.8067 58.6667 53.3333V32Z" fill="#185C37"/>
<path d="M58.6668 32H37.3335V44H58.6668V32Z" fill="#107C42"/>
<path d="M37.3333 20H16V32H37.3333V20Z" fill="#3FA071"/>
<path d="M56.0002 8H37.3335V20H58.6668V10.6667C58.6668 9.19333 57.4735 8 56.0002 8Z" fill="#33C481"/>
<path d="M18.6667 8H37.3333V20H16V10.6667C16 9.19333 17.1933 8 18.6667 8Z" fill="#21A366"/>
<path opacity="0.05" d="M29.7587 17.3333H16V49.3333H29.7587C32.4693 49.3333 34.6667 47.136 34.6667 44.4253V22.2413C34.6667 19.5307 32.4693 17.3333 29.7587 17.3333Z" fill="black"/>
<path opacity="0.07" d="M29.6173 48H16V17.7773H29.6173C31.916 17.7773 33.7787 19.64 33.7787 21.9387V43.8387C33.7773 46.1373 31.9147 48 29.6173 48Z" fill="black"/>
<path opacity="0.09" d="M29.4747 46.6667H16V18.2227H29.4747C31.36 18.2227 32.888 19.7507 32.888 21.636V43.2533C32.8893 45.1387 31.36 46.6667 29.4747 46.6667Z" fill="black"/>
<path d="M29.3335 45.3333H8.00016C6.52683 45.3333 5.3335 44.14 5.3335 42.6667V21.3333C5.3335 19.86 6.52683 18.6667 8.00016 18.6667H29.3335C30.8068 18.6667 32.0002 19.86 32.0002 21.3333V42.6667C32.0002 44.14 30.8068 45.3333 29.3335 45.3333Z" fill="url(#paint3_linear_0_1)"/>
<path d="M13.0758 25.3333H16.2572L18.8385 30.3387L21.5665 25.3333H24.5385L20.4438 32L24.6318 38.6667H21.4972L18.6838 33.4267L15.8825 38.6667H12.7012L16.9585 31.976L13.0758 25.3333Z" fill="white"/>
<path d="M85.125 56.3045C84.006 56.3045 82.8685 55.842 82.1545 54.935V59.833H79.9165V47.743H81.941L82.0205 49.0685C82.715 48.0465 83.949 47.5065 85.1255 47.508C87.381 47.508 89.0445 49.3975 89.0445 51.9055C89.0445 54.413 87.38 56.306 85.1245 56.305L85.125 56.3045ZM84.4315 49.1695C83.125 49.1695 82.0585 50.1915 82.0585 51.908C82.0585 53.6245 83.1185 54.6465 84.4305 54.6465C85.742 54.6465 86.8 53.6245 86.8 51.908C86.8 50.1915 85.742 49.1695 84.4315 49.1695V49.1695ZM97.479 56.075L97.4015 54.745C96.7075 55.7665 95.473 56.3065 94.2975 56.3065C92.041 56.3065 90.379 54.416 90.379 51.909C90.379 49.4025 92.0375 47.5115 94.2975 47.513C95.4725 47.513 96.7075 48.057 97.4015 49.0745L97.479 47.7445H99.504V56.076L97.479 56.075ZM94.992 49.17C93.6855 49.17 92.62 50.192 92.62 51.9085C92.62 53.625 93.68 54.647 94.992 54.647C96.3035 54.647 97.3635 53.625 97.3635 51.9095C97.3635 50.1945 96.3035 49.1765 94.992 49.17V49.17ZM107.331 56.077V51.463C107.331 49.843 106.771 49.303 105.75 49.303C104.69 49.303 103.532 50.2665 103.531 51.4235V56.0715H101.295V47.7445H103.345L103.441 49.288C104.001 48.227 105.254 47.514 106.527 47.514C108.744 47.514 109.574 49.0575 109.574 51.121V56.077H107.331ZM117.77 56.078L117.692 54.747C116.999 55.769 115.765 56.3085 114.588 56.3085C112.332 56.3085 110.669 54.4185 110.669 51.9115C110.669 49.4045 112.328 47.515 114.588 47.515C115.706 47.515 116.844 47.9785 117.558 48.885V44.5075H119.794V56.078H117.77ZM115.284 49.177C113.972 49.177 112.911 50.199 112.911 51.9155C112.911 53.632 113.971 54.653 115.282 54.6545C116.594 54.6545 117.654 53.632 117.654 51.9155C117.654 50.199 116.594 49.177 115.284 49.177ZM128.2 56.079L128.123 54.749C127.429 55.771 126.194 56.311 125.019 56.31C122.762 56.31 121.1 54.42 121.1 51.9135C121.1 49.4065 122.759 47.516 125.019 47.517C126.194 47.517 127.429 48.0615 128.123 49.079L128.201 47.749H130.231V56.079H128.2ZM125.713 49.177C124.402 49.177 123.342 50.199 123.342 51.9155C123.342 53.632 124.402 54.6545 125.713 54.6545C127.025 54.6545 128.085 53.632 128.085 51.9155C128.085 50.199 127.025 49.177 125.713 49.177ZM135.182 56.35C134.005 56.3406 132.853 56.0142 131.846 55.405L132.212 53.8575C132.887 54.2625 133.909 54.784 135.143 54.784C136.03 54.784 136.647 54.514 136.647 53.819C136.647 53.222 136.011 53.0095 134.873 52.7395C132.83 52.2955 132.096 51.216 132.097 50.0395C132.097 48.733 133.119 47.4945 135.376 47.4945C136.745 47.4945 137.94 48.093 138.206 48.2465L137.843 49.7215C137.115 49.2824 136.283 49.0427 135.433 49.0265C134.527 49.0265 134.083 49.335 134.083 49.8365C134.083 50.395 134.662 50.6465 135.549 50.8585C137.746 51.3215 138.634 52.3435 138.634 53.4625C138.634 55.252 137.322 56.35 135.182 56.35V56.35ZM103.971 8.0285H107.945V16.28H103.971V8.0285ZM103.971 24.9775H107.945V33.2285H103.971V24.9775Z" fill="white"/>
<path d="M103.971 18.6895H107.945V22.5825H103.971V18.6895Z" fill="#FFCA00"/>
<path d="M97.5874 14.813H101.561V42.24H97.5874V14.813ZM110.222 31.785H114.196V40.036H110.222V31.785ZM110.222 14.823H114.196V23.074H110.222V14.823Z" fill="white"/>
<path d="M110.223 25.4825H114.197V29.375H110.223V25.4825Z" fill="#E70488"/>
<path d="M116.473 5.881H120.447V33.3075H116.473V5.881Z" fill="white"/>
<path d="M30.9825 134.958V137.929H25.7773V139.861H30.9825V145.778H33.0173V139.861H38.3526V137.929H33.0173V132H30.9825V134.958Z" fill="#7099A6"/>
<path d="M13.971 142.494V146.805H6.09229V149.509H13.971V158.264H16.893V149.509H24.8901V146.805H16.893V138.183H13.971V142.494Z" fill="#EB912C"/>
<path d="M46.9886 142.494V146.805H39.1099V149.642H46.9886V158.264H50.0289V149.642H57.9076V146.805H50.0289V138.183H46.9886V142.494Z" fill="#59879B"/>
<path d="M30.2255 157.177V162.008H21.4595V165.606H30.2255V175.266H33.7744V165.606H42.5404V162.008H33.7744V152.347H30.2255V157.177Z" fill="#E8762C"/>
<path d="M56.0033 159.617V162.648H50.668V165.099H56.0033V171.149H58.665V165.099H64.0003V162.648H58.665V156.598H56.0033V159.617Z" fill="#5B6591"/>
<path d="M5.20518 159.882V162.78H0V164.833H5.20518V170.629H7.23993V164.833L12.5752 164.64V162.78H7.23993V156.984H5.20518V159.882Z" fill="#7099A6"/>
<path d="M13.971 173.528V177.839H6.09229V180.676H13.971V189.298H17.0113V180.676H24.8901V177.839H17.0113V169.217H13.971V173.528Z" fill="#C72035"/>
<path d="M46.9886 173.528V177.839H39.1099V180.543H46.9886V189.298H50.0289V180.543H57.9076V177.839H50.0289V169.217H46.9886V173.528Z" fill="#1F447E"/>
<path d="M30.7342 184.48V187.499H25.3989V189.95H30.7342V196H33.396V189.95H38.7313V187.499H33.396V181.449H30.7342V184.48Z" fill="#5B6591"/>
<defs>
<filter id="filter0_dd_0_1" x="-35.334" y="47.999" width="288.668" height="314.668" filterUnits="userSpaceOnUse" color-interpolation-filters="sRGB">
<feFlood flood-opacity="0" result="BackgroundImageFix"/>
<feColorMatrix in="SourceAlpha" type="matrix" values="0 0 0 0 0 0 0 0 0 0 0 0 0 0 0 0 0 0 127 0" result="hardAlpha"/>
<feOffset dy="6.333"/>
<feGaussianBlur stdDeviation="6.333"/>
<feColorMatrix type="matrix" values="0 0 0 0 0 0 0 0 0 0 0 0 0 0 0 0 0 0 0.2 0"/>
<feBlend mode="normal" in2="BackgroundImageFix" result="effect1_dropShadow_0_1"/>
<feColorMatrix in="SourceAlpha" type="matrix" values="0 0 0 0 0 0 0 0 0 0 0 0 0 0 0 0 0 0 127 0" result="hardAlpha"/>
<feOffset dy="33.333"/>
<feGaussianBlur stdDeviation="66.667"/>
<feColorMatrix type="matrix" values="0 0 0 0 0 0 0 0 0 0 0 0 0 0 0 0 0 0 0.18 0"/>
<feBlend mode="normal" in2="effect1_dropShadow_0_1" result="effect2_dropShadow_0_1"/>
<feBlend mode="normal" in="SourceGraphic" in2="effect2_dropShadow_0_1" result="shape"/>
</filter>
<linearGradient id="paint0_linear_0_1" x1="107.333" y1="132" x2="134.913" y2="192.286" gradientUnits="userSpaceOnUse">
<stop stop-color="#E6AD10"/>
<stop offset="1" stop-color="#C87E0E"/>
</linearGradient>
<linearGradient id="paint1_linear_0_1" x1="97.9982" y1="148" x2="121.232" y2="194.467" gradientUnits="userSpaceOnUse">
<stop stop-color="#F6D751"/>
<stop offset="1" stop-color="#E6AD10"/>
</linearGradient>
<linearGradient id="paint2_linear_0_1" x1="84.9982" y1="164" x2="97.7914" y2="195.267" gradientUnits="userSpaceOnUse">
<stop stop-color="#F9E589"/>
<stop offset="1" stop-color="#F6D751"/>
</linearGradient>
<linearGradient id="paint3_linear_0_1" x1="6.3007" y1="19.6339" x2="30.74" y2="44.0732" gradientUnits="userSpaceOnUse">
<stop stop-color="#18884F"/>
<stop offset="1" stop-color="#0B6731"/>
</linearGradient>
</defs>
</svg>
