<svg width="133" height="128" viewBox="0 0 133 128" fill="none" xmlns="http://www.w3.org/2000/svg">
<path d="M35.0005 109.229H37.0545V101.118L40.2345 108.189C40.6095 109.045 41.123 109.348 42.1305 109.348C43.138 109.348 43.632 109.045 44.007 108.189L47.187 101.118V109.229H49.241V101.131C49.241 100.341 48.925 99.9585 48.273 99.7615C46.7125 99.2745 45.6655 99.696 45.1915 100.75L42.071 107.729L39.0495 100.749C38.595 99.696 37.5285 99.2745 35.968 99.761C35.316 99.9585 35 100.341 35 101.131V109.229H35.0005ZM50.9495 102.626H53.003V107.095C52.984 107.338 53.081 107.908 54.206 107.926C54.78 107.935 58.637 107.926 58.673 107.926V102.604H60.7315C60.741 102.604 60.7295 109.861 60.7295 109.891C60.7405 111.681 58.509 112.07 57.48 112.1H50.994V110.718C51.005 110.718 57.4755 110.719 57.4915 110.717C58.814 110.578 58.6575 109.921 58.657 109.7V109.161H54.2915C52.2605 109.142 50.9665 108.256 50.95 107.236C50.949 107.142 50.9945 102.671 50.9495 102.626V102.626Z" fill="#00618A"/>
<path d="M62.3149 109.229H68.2209C68.9124 109.229 69.5844 109.085 70.1174 108.835C71.0059 108.427 71.4404 107.874 71.4404 107.149V105.648C71.4404 105.055 70.9469 104.502 69.9789 104.134C69.4654 103.936 68.8329 103.831 68.2204 103.831H65.7314C64.9019 103.831 64.5069 103.581 64.4084 103.028C64.3889 102.962 64.3889 102.91 64.3889 102.844V101.909C64.3889 101.856 64.3889 101.803 64.4084 101.738C64.5069 101.316 64.7244 101.198 65.4554 101.132L65.6529 101.119H71.5194V99.7495H65.7519C64.9224 99.7495 64.4879 99.802 64.0929 99.9205C62.8684 100.303 62.3344 100.908 62.3344 101.962V103.16C62.3344 104.082 63.3819 104.872 65.1394 105.056C65.3374 105.069 65.5344 105.083 65.7319 105.083H67.8654C67.9444 105.083 68.0234 105.083 68.0829 105.095C68.7349 105.148 69.0109 105.267 69.2089 105.503C69.2597 105.55 69.2999 105.607 69.3271 105.67C69.3542 105.734 69.3676 105.802 69.3664 105.872V107.07C69.3664 107.215 69.2679 107.399 69.0704 107.557C68.8929 107.715 68.5964 107.821 68.2014 107.847L67.9839 107.86H62.3149V109.229ZM84.2554 106.846C84.2554 108.255 85.3024 109.045 87.4154 109.203C87.6129 109.216 87.8104 109.229 88.0079 109.229H93.3609V107.86H87.9689C86.7639 107.86 86.3099 107.557 86.3099 106.833V99.7485H84.2559V106.846H84.2554ZM72.7514 106.917V102.035C72.7514 100.795 73.6224 100.042 75.3444 99.8045C75.5279 99.7782 75.7131 99.765 75.8984 99.765H79.7979C79.9959 99.765 80.1739 99.778 80.3714 99.8045C82.0934 100.042 82.9649 100.794 82.9649 102.035V106.917C82.9649 107.924 82.5949 108.462 81.7424 108.813L83.7664 110.64H81.3809L79.7439 109.162L78.0959 109.266H75.8984C75.4902 109.263 75.0842 109.206 74.6914 109.095C73.3849 108.739 72.7514 108.052 72.7514 106.917V106.917ZM74.9684 106.799C74.9684 106.865 74.9879 106.931 75.0079 107.01C75.1264 107.578 75.6614 107.894 76.4724 107.894H78.3384L76.6244 106.347H79.0099L80.5044 107.697C80.7804 107.549 80.9614 107.325 81.0249 107.037C81.0444 106.971 81.0444 106.905 81.0444 106.839V102.155C81.0444 102.102 81.0444 102.036 81.0249 101.97C80.9059 101.442 80.3714 101.139 79.5799 101.139H76.4719C75.5619 101.139 74.9679 101.535 74.9679 102.155V106.799H74.9684Z" fill="#E48E00"/>
<path d="M95.168 97.476C93.9055 97.4415 92.941 97.559 92.116 97.9065C91.8815 98.0055 91.508 98.008 91.47 98.3015C91.5985 98.437 91.6185 98.6385 91.721 98.8045C91.918 99.123 92.2505 99.55 92.547 99.7735C92.8705 100.018 93.2045 100.28 93.5525 100.492C94.17 100.869 94.86 101.084 95.4555 101.461C95.806 101.684 96.154 101.964 96.4965 102.215C96.666 102.339 96.779 102.532 96.9995 102.61V102.574C96.884 102.427 96.854 102.225 96.748 102.071L96.281 101.604C95.8245 100.998 95.2455 100.467 94.629 100.025C94.138 99.6725 93.039 99.196 92.834 98.6245L92.798 98.589C93.146 98.5495 93.554 98.4235 93.875 98.3375C94.415 98.1925 94.8975 98.23 95.455 98.086L96.209 97.87V97.727C95.9275 97.438 95.726 97.055 95.419 96.7935C94.6155 96.109 93.7375 95.425 92.834 94.854C92.333 94.538 91.7135 94.3325 91.182 94.0645C91.004 93.974 90.69 93.9275 90.5715 93.777C90.292 93.4215 90.1405 92.971 89.925 92.5565C89.4647 91.661 89.0337 90.7509 88.6325 89.8275C88.3605 89.205 88.1825 88.591 87.843 88.0325C86.2125 85.352 84.4575 83.734 81.739 82.144C81.1605 81.8055 80.464 81.6725 79.7285 81.498L78.5435 81.426C78.303 81.3255 78.052 81.0305 77.8255 80.8875C76.9245 80.3185 74.6145 79.081 73.9475 80.7085C73.5265 81.7355 74.5775 82.7375 74.953 83.258C75.2165 83.623 75.5545 84.032 75.743 84.4425C75.867 84.7125 75.888 84.983 75.9945 85.2685C76.255 85.9715 76.4825 86.737 76.82 87.3865C76.9905 87.7155 77.179 88.062 77.3945 88.356C77.5265 88.536 77.7535 88.616 77.789 88.8945C77.5675 89.2045 77.5545 89.6865 77.43 90.079C76.869 91.8485 77.0805 94.048 77.897 95.3575C78.1475 95.76 78.7375 96.622 79.5485 96.291C80.258 96.002 80.1 95.1065 80.303 94.316C80.349 94.1375 80.3205 94.0055 80.4105 93.8855V93.9215L81.057 95.214C81.5355 95.9845 82.384 96.789 83.1035 97.3325C83.4765 97.614 83.7705 98.1015 84.2525 98.266V98.2295H84.217C84.123 98.084 83.9775 98.024 83.8575 97.9065C83.5765 97.631 83.264 97.289 83.032 96.973C82.3775 96.085 81.7995 95.1125 81.2725 94.1005C81.021 93.6175 80.8025 93.0845 80.5905 92.5925C80.5085 92.403 80.5095 92.116 80.3395 92.0185C80.1065 92.3785 79.765 92.67 79.585 93.0955C79.298 93.7755 79.261 94.605 79.1545 95.465L79.0825 95.5005C78.582 95.38 78.4065 94.865 78.2205 94.4235C77.7505 93.307 77.663 91.5085 78.077 90.223C78.184 89.89 78.6675 88.8425 78.4715 88.535C78.378 88.2285 78.0695 88.0515 77.8975 87.8165C77.6718 87.502 77.4793 87.1651 77.323 86.811C76.938 85.9405 76.7585 84.963 76.354 84.0825C76.16 83.6615 75.833 83.236 75.564 82.862C75.2665 82.447 74.933 82.142 74.702 81.641C74.62 81.463 74.5085 81.1775 74.63 80.9945C74.6685 80.871 74.724 80.8195 74.846 80.779C75.054 80.6185 75.634 80.8325 75.851 80.9225C76.427 81.162 76.9075 81.3895 77.3955 81.7125C77.6295 81.868 77.866 82.168 78.1495 82.251H78.4725C78.978 82.367 79.5445 82.2865 80.0165 82.43C80.8515 82.684 81.5995 83.0785 82.2785 83.5075C84.348 84.8145 86.0395 86.6745 87.1975 88.8935C87.3835 89.251 87.4645 89.5915 87.628 89.9705C87.959 90.7345 88.376 91.521 88.705 92.2685C89.0335 93.014 89.354 93.7665 89.8185 94.387C90.0625 94.713 91.0055 94.888 91.434 95.069C91.7345 95.196 92.2265 95.3285 92.511 95.4995C93.0545 95.8275 93.5815 96.218 94.091 96.577C94.3455 96.758 95.129 97.1515 95.168 97.476V97.476ZM79.1185 83.7965C78.9008 83.7929 78.6835 83.8171 78.472 83.8685V83.904H78.508C78.6335 84.1625 78.855 84.3285 79.0105 84.5505L79.37 85.3045L79.4055 85.269C79.628 85.1125 79.7295 84.862 79.7285 84.479C79.639 84.385 79.626 84.2675 79.549 84.156C79.447 84.006 79.248 83.922 79.1185 83.7965V83.7965Z" fill="#00618A"/>
<path d="M37.6951 12.655C37.5951 12.685 37.0701 12.86 36.5151 13.04C33.5451 14.01 31.4401 15.135 30.9201 16.03C30.7201 16.37 30.6851 16.65 30.8001 16.925C30.9301 17.235 31.1701 17.475 31.8301 17.94C32.1401 18.16 32.6651 18.61 33.0101 18.95C34.6451 20.58 35.4351 22.58 35.3451 24.84C35.2451 27.385 34.0501 29.93 31.7701 32.47C30.9751 33.36 30.1551 34.1 28.5901 35.355C27.2851 36.4 26.5751 37.08 26.0901 37.735C24.6051 39.755 25.0051 41.555 27.2651 43.06C29.2601 44.39 32.7751 45.495 36.9251 46.095C38.3151 46.295 39.8851 46.425 40.2651 46.37L40.5301 46.33L40.9451 45.58C43.0501 41.795 44.1101 38.22 44.2401 34.525C44.2951 32.875 44.0901 30.925 43.7351 29.785C43.6701 29.58 43.6251 29.405 43.6301 29.4C43.6351 29.395 44.2251 29.215 44.9351 29.005C48.6801 27.89 52.3051 27.01 55.3001 26.49C55.8851 26.39 56.3801 26.285 56.4051 26.26C56.5651 26.105 56.1001 25.375 55.3401 24.595C52.5401 21.705 47.5901 19.505 41.7801 18.565C40.6601 18.385 40.5251 18.32 40.1101 17.77C39.4501 16.895 38.8301 15.405 37.9851 12.67C37.9601 12.58 37.9351 12.58 37.6951 12.655V12.655ZM38.0801 13.685C38.4051 14.575 38.6051 15.27 38.6051 15.515V15.71L38.3301 15.68C36.8351 15.505 34.4451 15.135 33.9351 15C33.8051 14.965 33.7301 14.915 33.7551 14.875C33.7951 14.815 34.3001 14.57 35.8101 13.885C37.2151 13.245 37.7501 13.01 37.7951 13.005C37.8151 13 37.9401 13.31 38.0801 13.685ZM34.9151 15.56C36.7401 15.945 38.0751 16.185 38.3651 16.185C38.6501 16.185 38.6201 16.21 37.2751 17.03C36.2401 17.66 36.1201 17.72 35.8601 17.72H35.5751L34.8051 16.945C33.8751 16.005 33.2451 15.315 33.2451 15.235C33.2451 15.205 33.2651 15.195 33.2901 15.21C33.3151 15.215 34.0501 15.375 34.9151 15.56V15.56ZM33.5651 16.425C34.0151 16.95 34.3601 17.39 34.3401 17.405C34.3001 17.44 33.0201 17.125 32.2401 16.885C31.5551 16.675 31.4751 16.605 31.6551 16.37C31.7751 16.215 32.6551 15.48 32.7201 15.475C32.7401 15.475 33.1151 15.9 33.5651 16.425V16.425ZM39.3951 17.505C39.5751 17.93 39.7101 18.275 39.7051 18.28C39.6951 18.285 37.2951 17.915 37.0851 17.875C37.0401 17.865 37.4451 17.59 37.9951 17.255C38.5451 16.92 39.0051 16.67 39.0301 16.695C39.0551 16.72 39.2151 17.08 39.3951 17.505V17.505ZM34.1601 18.315C34.2051 18.36 34.7801 20.205 34.7551 20.23C34.7451 20.24 34.4751 19.925 34.1501 19.525C33.8251 19.125 33.3351 18.56 33.0501 18.27L32.5401 17.735L33.3301 18.01C33.7701 18.155 34.1401 18.295 34.1601 18.315V18.315ZM36.4551 18.56C37.4501 18.7 38.2751 18.83 38.2901 18.845C38.3051 18.86 37.7001 19.33 36.9551 19.885C36.2051 20.44 35.5901 20.89 35.5801 20.88C35.5701 20.87 35.4951 20.64 35.4101 20.36C35.3251 20.085 35.1151 19.51 34.9401 19.08C34.7651 18.65 34.6251 18.3 34.6351 18.3C34.6401 18.3 35.4601 18.42 36.4551 18.56V18.56ZM38.9551 19.355C39.1751 19.87 39.2601 20.36 39.2951 21.345C39.3151 21.875 39.3151 22.305 39.3001 22.305C39.2801 22.305 38.9651 22.195 38.6001 22.065C37.8701 21.8 36.4401 21.33 36.2701 21.295C36.1951 21.28 36.5401 20.95 37.4501 20.17C38.1551 19.56 38.7551 19.065 38.7851 19.065C38.8101 19.065 38.8851 19.195 38.9551 19.355V19.355ZM41.5201 19.48C42.6201 19.705 43.5851 19.905 43.6601 19.925C43.7701 19.95 43.5051 20.115 42.3401 20.755C41.5401 21.195 40.6301 21.695 40.3201 21.87C40.0101 22.045 39.7501 22.18 39.7451 22.175C39.7401 22.17 39.7701 22.005 39.8151 21.81C39.9801 21.095 39.8751 20.205 39.5451 19.495C39.4501 19.29 39.3701 19.105 39.3701 19.095C39.3751 19.04 39.5751 19.08 41.5201 19.48V19.48ZM44.5251 20.825C44.4701 21.075 44.3451 21.5 44.2501 21.775C44.0401 22.38 43.2701 23.955 43.1651 23.995C43.1251 24.01 42.7601 23.845 42.3651 23.625C41.9701 23.405 41.3951 23.115 41.0951 22.98L40.5451 22.735L42.5601 21.44C44.2301 20.37 44.5801 20.165 44.6001 20.26C44.6151 20.325 44.5801 20.575 44.5251 20.825V20.825ZM46.0001 20.365C48.0901 20.965 50.3001 21.775 50.1701 21.895C50.1451 21.92 49.8701 22.01 49.5651 22.095C47.9851 22.54 45.7901 23.3 44.7651 23.755C44.4451 23.895 44.1701 24 44.1551 23.98C44.1401 23.965 44.2651 23.505 44.4351 22.955C44.7651 21.875 45.1501 20.42 45.1501 20.235C45.1501 20.155 45.1801 20.125 45.2551 20.145C45.3051 20.165 45.6401 20.265 46.0001 20.365V20.365ZM37.0051 22.535C37.4801 22.69 38.0401 22.905 38.2451 23.01C38.6151 23.195 38.6201 23.2 38.5151 23.315C38.3251 23.525 36.2501 25.46 36.1901 25.48C36.1601 25.49 36.1351 25.2 36.1351 24.775C36.1351 24.04 36.0501 22.71 35.9851 22.415C35.9351 22.19 35.9751 22.195 37.0051 22.535V22.535ZM50.2851 22.92C49.8301 23.675 49.0751 24.75 48.5351 25.43C47.9801 26.125 46.8051 27.43 46.7351 27.43C46.7101 27.43 46.5401 27.22 46.3551 26.96C45.6851 26.005 44.9101 25.18 44.2301 24.7C44.1651 24.655 44.1251 24.605 44.1401 24.59C44.1551 24.575 45.2701 24.165 46.6151 23.675C49.3351 22.69 50.5351 22.29 50.6101 22.34C50.6201 22.345 50.4751 22.605 50.2851 22.92V22.92ZM51.9851 22.79C53.8651 24.1 55.1401 25.16 55.6001 25.795C55.7151 25.955 55.8001 26.09 55.7901 26.1C55.7801 26.11 55.1751 26.175 54.4451 26.25C51.5301 26.535 49.4551 26.83 48.3551 27.11C48.0601 27.185 47.8151 27.24 47.8101 27.235C47.8051 27.23 48.0001 26.99 48.2451 26.695C49.5151 25.17 50.6651 23.585 51.0901 22.76C51.2051 22.54 51.3151 22.365 51.3351 22.365C51.3601 22.365 51.6501 22.555 51.9851 22.79V22.79ZM41.4651 24.415C41.8251 24.61 42.1001 24.785 42.0851 24.815C42.0551 24.87 38.8901 26.605 38.8601 26.58C38.8551 26.575 39.0151 26.055 39.2251 25.42C39.4351 24.785 39.6351 24.095 39.6751 23.885L39.7451 23.5L40.2801 23.785C40.5751 23.94 41.1051 24.22 41.4651 24.415V24.415ZM38.8101 24.515C38.5051 25.575 37.8851 26.945 37.6001 27.18C37.5351 27.235 37.4051 27.16 36.9901 26.82C36.6951 26.585 36.3951 26.35 36.3151 26.295C36.2401 26.24 36.1801 26.185 36.1951 26.17C36.4151 25.955 38.9351 23.92 38.9501 23.95C38.9551 23.97 38.8951 24.225 38.8101 24.515V24.515ZM44.5501 26.36C45.0251 26.68 46.0851 27.625 46.0301 27.685C46.0151 27.7 44.9401 28.05 43.6451 28.46C42.3501 28.87 40.9051 29.335 40.4351 29.49C39.9651 29.65 39.5751 29.77 39.5701 29.765C39.5651 29.76 39.8951 29.385 40.3001 28.93C41.3601 27.745 42.4501 26.48 42.8401 25.98L43.1751 25.55L43.6101 25.785C43.8451 25.915 44.2701 26.175 44.5501 26.36V26.36ZM42.0951 25.68C42.0651 25.72 41.7801 26.08 41.4601 26.485C41.1401 26.89 40.3701 27.875 39.7501 28.675L38.6201 30.13L38.5851 29.885C38.5151 29.41 38.2601 28.475 38.1151 28.16L37.9701 27.84L38.6901 27.48C39.4301 27.11 40.9801 26.27 41.7051 25.845C42.1501 25.585 42.1801 25.57 42.0951 25.68V25.68ZM36.0951 27.44C36.3901 27.59 36.6651 27.79 36.6651 27.85C36.6651 27.945 34.7501 29.425 34.6951 29.37C34.6851 29.355 34.8551 29.015 35.0801 28.61C35.3051 28.205 35.5301 27.75 35.5851 27.595C35.6401 27.44 35.7201 27.315 35.7651 27.315C35.8101 27.31 35.9551 27.37 36.0951 27.44V27.44ZM37.7251 29.26C37.8551 29.52 37.9951 30.245 37.9251 30.31C37.8951 30.335 37.1051 30.71 36.1651 31.145C35.2251 31.575 34.0001 32.155 33.4401 32.435C32.8801 32.715 32.4551 32.91 32.5001 32.875C32.5401 32.84 33.1551 32.32 33.8701 31.73C35.2501 30.585 36.8201 29.215 37.1051 28.91L37.2801 28.725L37.4501 28.885C37.5401 28.975 37.6651 29.145 37.7251 29.26V29.26ZM36.1801 29.245C36.0451 29.37 35.3051 30.01 34.5451 30.67C33.7851 31.33 32.8701 32.125 32.5151 32.435C31.7951 33.06 31.7951 33.06 32.7151 31.865C33.4251 30.94 33.7951 30.595 34.8151 29.91C35.3101 29.58 36.2951 29.02 36.3951 29.02C36.4101 29.02 36.3151 29.12 36.1801 29.245ZM43.3151 29.875C43.3501 30.07 43.4001 30.675 43.4201 31.215L43.4551 32.2L43.2251 32.095C42.4351 31.73 40.2151 30.48 40.3001 30.445C40.7851 30.25 43.1801 29.455 43.2101 29.485C43.2301 29.505 43.2801 29.68 43.3151 29.875ZM41.4351 31.64C42.3601 32.185 43.1251 32.635 43.1351 32.645C43.1451 32.655 43.0251 32.755 42.8751 32.865C42.5801 33.08 39.4501 34.7 39.4051 34.66C39.3901 34.645 39.4351 34.375 39.5001 34.065C39.6301 33.435 39.7401 31.555 39.6901 30.96C39.6701 30.75 39.6801 30.6 39.7101 30.62C39.7301 30.635 40.5101 31.095 41.4351 31.64V31.64ZM38.8801 31.24C38.9501 31.825 38.8651 33 38.7051 33.615C38.5201 34.335 38.4101 34.635 38.3301 34.66C38.2201 34.695 37.5351 34.075 37.1201 33.555C36.7001 33.03 36.1451 32.045 36.2301 31.965C36.2801 31.915 38.7201 30.91 38.8001 30.91C38.8201 30.905 38.8551 31.055 38.8801 31.24V31.24ZM35.8851 32.71C36.1451 33.245 36.7351 34.015 37.3801 34.67C37.7951 35.09 37.9001 35.225 37.8351 35.27C37.5451 35.465 36.2451 36.075 35.4251 36.395C34.4301 36.785 33.1351 37.235 33.1051 37.195C33.0951 37.18 33.3901 36.64 33.7651 35.995C34.5751 34.59 35.6001 32.595 35.6001 32.43C35.6051 32.225 35.6901 32.31 35.8851 32.71V32.71ZM34.3501 32.745C34.3351 32.785 34.2101 33.095 34.0751 33.435C33.5001 34.895 32.3801 36.88 32.1301 36.88C31.9351 36.88 31.6501 35.725 31.5701 34.615L31.5301 34.055L32.9001 33.365C33.6551 32.985 34.2951 32.675 34.3251 32.675C34.3551 32.67 34.3651 32.705 34.3501 32.745ZM43.4951 34.095C43.5001 34.935 43.1501 36.97 42.9601 37.175C42.8801 37.26 42.0151 36.94 41.2301 36.535C40.5301 36.175 39.3751 35.46 39.3751 35.385C39.3751 35.365 39.5501 35.275 39.7701 35.185C40.1851 35.01 42.1201 33.975 42.9401 33.49L43.4101 33.21L43.4501 33.425C43.4701 33.545 43.4901 33.85 43.4951 34.095V34.095ZM30.5901 35.065C30.6701 35.73 30.8751 36.545 31.1301 37.19C31.2351 37.455 31.3101 37.685 31.2951 37.695C31.1951 37.785 27.0801 38.92 26.5351 39.005L26.2751 39.045L26.3151 38.845C26.3701 38.56 26.7701 37.75 27.0651 37.31C27.4351 36.765 28.3451 35.85 28.9451 35.425C29.3951 35.11 30.4751 34.475 30.5051 34.515C30.5251 34.52 30.5551 34.765 30.5901 35.065V35.065ZM39.9251 36.47C41.1951 37.08 41.6751 37.29 42.2851 37.5L42.7501 37.66L42.4551 37.81C40.7901 38.655 37.8401 39.855 37.0801 40.005C36.9101 40.04 36.8851 40.03 36.9201 39.945C37.0501 39.605 38.8101 35.97 38.8451 35.97C38.8651 35.97 39.3551 36.195 39.9251 36.47V36.47ZM37.6901 36.335C37.6001 36.765 37.1151 38.15 36.8351 38.78C36.5901 39.33 36.0251 40.395 35.9251 40.495C35.8801 40.54 34.8751 39.975 34.4001 39.635C33.8651 39.255 32.6951 38.125 32.7301 38.02C32.7451 37.98 33.4551 37.705 34.3151 37.41C36.1251 36.785 37.1351 36.41 37.4301 36.255C37.7101 36.105 37.7351 36.115 37.6901 36.335V36.335ZM42.7501 38.245C42.7351 38.37 42.6301 38.915 42.5201 39.47C42.1751 41.2 41.7551 42.385 41.4901 42.385C41.1201 42.385 38.6001 41.775 37.7851 41.485C37.2301 41.29 36.7551 41.065 36.5951 40.93C36.4951 40.845 36.5501 40.815 37.2701 40.52C39.6001 39.57 42.2901 38.355 42.5801 38.125C42.7551 37.985 42.7801 38.005 42.7501 38.245V38.245ZM30.9501 38.775C30.6851 39.25 30.1451 40.03 29.1101 41.425L28.2301 42.615L27.9651 42.425C27.5951 42.16 27.0051 41.52 26.7601 41.115C26.4951 40.68 26.3151 40.14 26.2951 39.73L26.2801 39.41L26.7151 39.365C27.3051 39.305 28.9601 38.965 30.1351 38.655C30.6701 38.515 31.1151 38.41 31.1251 38.415C31.1301 38.43 31.0551 38.59 30.9501 38.775V38.775ZM33.5151 40C33.8101 40.21 34.2151 40.48 34.4201 40.6L34.7951 40.82L34.6251 40.89C34.5301 40.93 33.1601 41.43 31.5751 42C28.8701 42.975 28.6951 43.035 28.6201 42.935C28.5751 42.875 28.5451 42.815 28.5501 42.795C28.5551 42.775 29.2851 41.83 30.1751 40.695L31.7901 38.63L32.3851 39.125C32.7201 39.4 33.2201 39.79 33.5151 40ZM34.1801 43.105C33.5901 43.99 33.0901 44.735 33.0701 44.755C33.0251 44.815 32.0801 44.595 31.3751 44.355C30.6351 44.105 29.7201 43.645 29.3601 43.335L29.1001 43.11L29.6851 42.95C32.0701 42.3 35.2251 41.465 35.2401 41.475C35.2501 41.485 34.7701 42.22 34.1801 43.105V43.105ZM37.0151 41.765C38.2801 42.2 39.4301 42.445 40.9251 42.605L41.3351 42.65L40.2201 43.05C37.4401 44.055 35.1851 44.76 34.0551 44.98C33.7351 45.04 33.4451 45.095 33.4151 45.095C33.3851 45.095 33.6101 44.785 33.9201 44.405C34.7701 43.37 35.6901 42.19 35.9351 41.825C36.0551 41.65 36.1751 41.5 36.2001 41.5C36.2301 41.505 36.5951 41.62 37.0151 41.765V41.765ZM41.1601 44.105C40.6801 45.34 40.3301 46.095 40.2101 46.14C39.9751 46.23 36.6901 45.75 35.6851 45.475C35.0201 45.295 34.5951 45.12 34.7201 45.075C34.7701 45.06 35.2451 44.945 35.7801 44.825C37.5151 44.435 40.1651 43.63 41.2651 43.16C41.4051 43.1 41.5301 43.055 41.5401 43.065C41.5501 43.075 41.3801 43.54 41.1601 44.105V44.105ZM21.7351 45.15C21.5001 45.25 21.3901 45.445 21.3651 45.81C21.3401 46.15 21.3401 46.155 21.1701 46.155C21.0001 46.155 20.9951 46.165 21.0151 46.405C21.0301 46.63 21.0501 46.655 21.1951 46.675L21.3551 46.695V48.525L21.6301 48.5L21.9101 48.48L21.9301 47.58L21.9501 46.68H22.7701V47.34C22.7701 48.16 22.8551 48.375 23.2101 48.495C23.3701 48.55 23.5201 48.56 23.6801 48.525C23.9051 48.48 23.9151 48.465 23.9351 48.225L23.9551 47.97L23.7601 48.005C23.4201 48.065 23.4001 48.025 23.4101 47.195L23.4151 46.685H23.5851C23.8801 46.685 23.9451 46.63 23.9451 46.385V46.155H23.4151V45.935C23.4151 45.61 23.3601 45.555 23.0551 45.575L22.7951 45.59L22.7751 45.87L22.7551 46.15H21.9401V45.95C21.9401 45.675 22.0851 45.54 22.3351 45.59C22.5251 45.625 22.5301 45.625 22.5301 45.43C22.5301 45.325 22.4951 45.2 22.4601 45.16C22.3801 45.09 21.9101 45.08 21.7351 45.15V45.15ZM8.7051 45.245C8.4501 45.425 8.5751 45.8 8.8951 45.8C9.2251 45.8 9.2851 45.755 9.2851 45.5C9.2801 45.175 8.9901 45.045 8.7051 45.245ZM4.3751 45.405C4.2851 45.47 4.2751 45.62 4.2901 46.98L4.3051 48.48L4.5851 48.5L4.8651 48.52V47.215C4.8651 46.495 4.8801 45.92 4.8951 45.935C4.9151 45.95 5.0851 46.425 5.2801 46.99C5.4751 47.555 5.6751 48.13 5.7251 48.27L5.8201 48.525L6.1151 48.5L6.4101 48.48L6.8601 47.23L7.3101 45.98L7.3401 47.23C7.3601 47.92 7.3801 48.49 7.3851 48.5C7.3901 48.51 7.5251 48.51 7.6751 48.5L7.9551 48.48L7.9701 46.985C7.9801 45.93 7.9651 45.465 7.9151 45.405C7.8101 45.275 7.1451 45.3 7.0251 45.435C6.9751 45.495 6.7651 45.98 6.5651 46.51C6.3651 47.04 6.1851 47.495 6.1651 47.52C6.1451 47.545 5.9701 47.12 5.7751 46.58C5.5801 46.03 5.3651 45.54 5.2901 45.465C5.1851 45.36 5.0951 45.33 4.8151 45.33C4.6301 45.33 4.4301 45.365 4.3751 45.405V45.405ZM10.4351 46.155C10.0051 46.295 9.7501 46.74 9.7501 47.365C9.7501 48.065 10.0151 48.445 10.5751 48.54C10.8301 48.585 11.2651 48.485 11.4151 48.35C11.5151 48.26 11.5601 47.925 11.4801 47.85C11.4601 47.83 11.3501 47.865 11.2351 47.93C10.8101 48.16 10.4951 48.03 10.3951 47.585C10.3301 47.29 10.4001 46.91 10.5551 46.745C10.6801 46.61 10.9901 46.6 11.2301 46.725C11.4551 46.84 11.5201 46.8 11.5201 46.54C11.5201 46.395 11.4851 46.315 11.3801 46.25C11.2001 46.125 10.6701 46.08 10.4351 46.155V46.155ZM12.7301 46.275C12.5251 46.455 12.5251 46.455 12.5051 46.32C12.4901 46.205 12.4501 46.18 12.2351 46.165L11.9851 46.145V48.505H12.5751V47.775C12.5751 47.045 12.5751 47.045 12.7501 46.855C12.8951 46.7 12.9601 46.67 13.1351 46.69C13.3551 46.715 13.4001 46.665 13.4001 46.39C13.4001 46.05 13.0601 45.99 12.7301 46.275V46.275ZM14.3601 46.165C13.8851 46.305 13.5951 46.86 13.6551 47.515C13.7101 48.12 14.0201 48.465 14.5801 48.545C15.5701 48.68 16.2151 47.87 15.9351 46.85C15.7651 46.25 15.0851 45.95 14.3601 46.165V46.165ZM15.0501 46.625C15.3601 46.79 15.4401 47.51 15.1851 47.85C15.0251 48.06 14.6701 48.1 14.4551 47.93C14.3251 47.825 14.3151 47.775 14.3151 47.335C14.3151 46.88 14.3251 46.845 14.4801 46.71C14.6501 46.56 14.8701 46.53 15.0501 46.625V46.625ZM16.7901 46.18C16.4901 46.31 16.3801 46.485 16.3801 46.81C16.3801 47.16 16.4901 47.29 17.0151 47.54C17.3151 47.685 17.3801 47.74 17.3801 47.865C17.3801 47.97 17.3351 48.03 17.2151 48.07C17.0651 48.12 16.9251 48.095 16.4501 47.945C16.3601 47.915 16.3451 47.94 16.3601 48.14C16.3751 48.33 16.4101 48.385 16.5551 48.455C16.8001 48.575 17.3901 48.565 17.6351 48.435C17.9901 48.245 18.1001 47.67 17.8401 47.38C17.7801 47.315 17.5651 47.18 17.3501 47.08C16.9601 46.895 16.8651 46.76 17.0001 46.6C17.0901 46.495 17.3551 46.495 17.6201 46.605C17.7951 46.68 17.8301 46.68 17.8601 46.61C17.9201 46.45 17.8501 46.26 17.7051 46.185C17.5101 46.08 17.0101 46.08 16.7901 46.18V46.18ZM19.1751 46.14C18.6551 46.325 18.4201 46.64 18.3701 47.2C18.3101 47.89 18.5601 48.33 19.1001 48.49C20.0051 48.755 20.7101 48.23 20.7051 47.295C20.7001 46.73 20.4451 46.315 20.0051 46.165C19.8001 46.095 19.3351 46.08 19.1751 46.14V46.14ZM19.8601 46.71C20.0151 46.84 20.0251 46.88 20.0251 47.295C20.0251 47.685 20.0101 47.755 19.8801 47.89C19.6951 48.085 19.3451 48.1 19.1701 47.925C19.0201 47.775 18.9751 47.58 19.0101 47.175C19.0301 46.91 19.0701 46.82 19.1951 46.705C19.4051 46.525 19.6501 46.53 19.8601 46.71V46.71ZM8.6451 47.315L8.6601 48.485H9.2501V46.185L8.9401 46.17L8.6301 46.15L8.6451 47.315ZM5.8301 49.955C5.0751 50.12 4.5051 50.535 4.2051 51.15C4.0201 51.525 4.0101 51.58 4.0101 52.19C4.0101 52.78 4.0251 52.87 4.1701 53.17C4.4851 53.815 5.0651 54.27 6.2751 54.82C7.5951 55.42 7.9551 55.79 7.9551 56.555C7.9551 57.25 7.6301 57.665 6.9151 57.885C6.2051 58.105 5.4951 58 4.5751 57.54C4.2701 57.385 3.9951 57.25 3.9751 57.24C3.9501 57.23 3.8951 57.265 3.8401 57.315C3.7301 57.43 3.7101 58 3.8151 58.19C4.0351 58.605 5.1901 58.99 6.1951 58.99C8.0851 58.99 9.3051 57.865 9.2051 56.21C9.1851 55.85 9.1401 55.675 8.9901 55.375C8.6951 54.78 8.3151 54.47 7.1601 53.905C6.6251 53.645 6.0401 53.33 5.8551 53.205C5.1251 52.715 4.9551 51.88 5.4701 51.3C5.7551 50.975 6.0451 50.87 6.6401 50.865C7.2051 50.865 7.4351 50.925 8.0851 51.255C8.6451 51.54 8.6951 51.515 8.6951 50.96C8.6951 50.46 8.6651 50.415 8.1551 50.18C7.4801 49.885 6.5751 49.795 5.8301 49.955V49.955ZM13.7101 49.92C12.5951 50.1 11.7351 50.64 11.1601 51.525C10.8701 51.975 10.7101 52.395 10.5601 53.105C10.3951 53.88 10.4351 55.605 10.6301 56.315C11.1101 58.06 12.1851 58.9 14.0251 58.98C14.9951 59.02 15.3701 58.95 16.3201 58.545C16.3551 58.53 16.5151 58.63 16.6751 58.765C17.2851 59.295 18.6251 60.055 19.0951 60.145C19.3851 60.2 19.4651 60.105 19.4651 59.695C19.4651 59.505 19.4501 59.31 19.4301 59.255C19.4101 59.2 19.1301 59.025 18.8001 58.86C18.2951 58.61 17.2851 57.96 17.2851 57.885C17.2851 57.87 17.3801 57.74 17.4901 57.59C17.9651 56.97 18.2501 56.105 18.3501 54.985C18.4251 54.13 18.3551 53.215 18.1601 52.505C17.8051 51.22 16.9401 50.335 15.7201 50.005C15.3151 49.905 14.1551 49.85 13.7101 49.92V49.92ZM15.4801 51.045C16.1801 51.305 16.6451 51.835 16.9151 52.66C17.0501 53.075 17.0751 53.265 17.1001 54.145C17.1351 55.325 17.0451 55.895 16.7351 56.555C16.2401 57.615 15.1551 58.145 13.8901 57.95C12.3201 57.71 11.6301 56.525 11.7101 54.2C11.7551 52.865 11.9951 52.165 12.6151 51.575C12.9801 51.225 13.2451 51.07 13.6701 50.965C14.1601 50.835 15.0301 50.875 15.4801 51.045V51.045ZM29.6451 49.96C28.9201 50.135 28.3051 50.585 28.0401 51.125C27.7401 51.745 27.7301 52.62 28.0151 53.185C28.3501 53.85 28.8001 54.195 30.2001 54.86C31.2601 55.365 31.6151 55.66 31.7601 56.155C31.9301 56.74 31.7101 57.35 31.2201 57.67C30.4551 58.165 29.3651 58.085 28.2001 57.45C27.6751 57.165 27.6001 57.195 27.6001 57.7C27.6001 58.17 27.6651 58.31 27.9851 58.495C28.9701 59.075 30.6101 59.15 31.6301 58.67C32.8601 58.09 33.4151 56.565 32.8351 55.355C32.7601 55.2 32.5501 54.93 32.3601 54.745C32.0701 54.46 31.8401 54.32 30.8701 53.845C29.2601 53.055 28.9401 52.715 29.0351 51.91C29.0851 51.51 29.2951 51.215 29.6651 51.03C29.9201 50.9 30.0601 50.875 30.4501 50.875C31.0301 50.875 31.2651 50.935 31.8501 51.235C32.3501 51.49 32.4551 51.51 32.5101 51.37C32.5801 51.195 32.5451 50.61 32.4601 50.485C32.3451 50.325 31.7601 50.065 31.2651 49.96C30.7701 49.855 30.0901 49.85 29.6451 49.96ZM20.4801 50.055C20.4251 50.11 20.4101 51.145 20.4101 54.355V58.585L20.5551 58.73L20.7001 58.875H22.7901C24.3901 58.875 24.8901 58.855 24.9401 58.8C25.0301 58.685 25.0701 58.34 25.0201 58.11L24.9751 57.905L23.3001 57.875L21.6251 57.845L21.6101 53.96C21.6001 50.945 21.5801 50.065 21.5251 50.03C21.4001 49.96 20.5601 49.975 20.4801 50.055V50.055ZM36.1951 52.265C35.9101 52.31 35.3401 52.535 35.1051 52.695C34.5401 53.08 34.1401 53.695 33.9151 54.52C33.7751 55.045 33.7751 56.34 33.9151 56.875C34.2051 57.97 34.8451 58.635 35.8651 58.905C36.3101 59.02 37.4351 59.02 37.9851 58.905C38.5051 58.795 39.0451 58.595 39.1451 58.48C39.2401 58.37 39.2351 57.775 39.1401 57.68C39.0901 57.63 38.9351 57.665 38.5201 57.805C36.9251 58.345 35.6951 58.11 35.2201 57.175C35.0801 56.9 34.9501 56.35 34.9501 56.04V55.875H36.9751C38.2551 55.875 39.0651 55.85 39.1801 55.81C39.4401 55.72 39.5101 55.495 39.4651 54.915C39.3751 53.765 38.9901 53.045 38.2351 52.59C37.7551 52.3 36.8651 52.155 36.1951 52.265V52.265ZM37.2751 53.19C37.8751 53.37 38.2451 53.88 38.3001 54.585L38.3301 54.99H34.9401L34.9801 54.745C35.0851 54.135 35.3401 53.68 35.7351 53.41C36.1801 53.105 36.7351 53.025 37.2751 53.19V53.19ZM43.0701 52.28C42.7901 52.37 42.3851 52.695 42.0951 53.06L41.8151 53.42L41.7851 52.895L41.7551 52.37L41.4051 52.35C41.2101 52.34 40.9951 52.345 40.9201 52.365L40.7851 52.395V55.6C40.7851 58.47 40.7951 58.805 40.8801 58.84C41.0001 58.885 41.6951 58.885 41.8101 58.84C41.8951 58.81 41.9051 58.565 41.9051 56.715V54.625L42.1651 54.26C42.5201 53.76 42.9801 53.355 43.2451 53.305C43.3851 53.28 43.6051 53.3 43.8651 53.365C44.1201 53.43 44.2901 53.445 44.3251 53.41C44.3551 53.38 44.3751 53.14 44.3651 52.89C44.3501 52.44 44.3401 52.42 44.1751 52.345C43.9701 52.245 43.2951 52.205 43.0701 52.28V52.28ZM53.2101 52.285C52.7451 52.365 52.0851 52.705 51.7451 53.045C51.1001 53.69 50.8301 54.58 50.8751 55.9C50.9151 57.09 51.1351 57.68 51.7601 58.265C52.3551 58.83 52.9851 59.015 54.1251 58.98C54.9601 58.95 55.7101 58.785 56.0551 58.555C56.2251 58.44 56.2451 58.395 56.2601 58.105C56.2701 57.93 56.2501 57.745 56.2201 57.695C56.1601 57.6 56.2101 57.59 55.2151 57.905C54.8101 58.03 54.5951 58.06 54.0951 58.065C53.1051 58.07 52.5951 57.805 52.2601 57.125C52.1201 56.84 52.0701 56.64 52.0451 56.31L52.0151 55.875L54.1351 55.86C56.6801 55.84 56.5101 55.895 56.5051 55.11C56.5001 53.73 55.9051 52.77 54.8301 52.395C54.4401 52.265 53.6551 52.21 53.2101 52.285V52.285ZM54.3201 53.195C54.9051 53.37 55.2901 53.89 55.3701 54.625L55.4101 54.99H52.0201L52.0551 54.695C52.1401 53.975 52.6351 53.355 53.2751 53.16C53.5201 53.085 54.0001 53.105 54.3201 53.195V53.195ZM60.1601 52.275C59.7801 52.4 59.2551 52.84 58.9651 53.275C58.8701 53.42 58.8651 53.41 58.8651 52.95C58.8651 52.66 58.8401 52.45 58.7951 52.41C58.7001 52.315 57.9701 52.315 57.8751 52.41C57.7751 52.51 57.7751 58.705 57.8751 58.805C57.9701 58.9 58.8151 58.9 58.9101 58.805C58.9601 58.755 58.9801 58.195 58.9801 56.67V54.605L59.2001 54.28C59.5251 53.795 59.9351 53.415 60.2201 53.33C60.4651 53.255 60.5601 53.265 61.2151 53.435C61.4001 53.485 61.4551 53.38 61.4551 52.985C61.4551 52.545 61.4151 52.425 61.2301 52.34C61.0401 52.255 60.3551 52.21 60.1601 52.275V52.275ZM44.5001 52.43C44.4401 52.505 44.6201 53.055 45.5301 55.595C46.1351 57.285 46.6801 58.72 46.7401 58.785C46.9651 59.015 48.0801 58.96 48.1801 58.715C48.2551 58.52 50.3201 52.785 50.3601 52.65C50.4301 52.415 50.3051 52.345 49.8001 52.345C49.5051 52.345 49.3201 52.37 49.2851 52.42C49.2551 52.46 48.8351 53.655 48.3551 55.075C47.8751 56.495 47.4651 57.635 47.4401 57.605C47.4151 57.58 47.0051 56.42 46.5301 55.025C46.0551 53.63 45.6351 52.46 45.6001 52.415C45.5101 52.3 44.5901 52.315 44.5001 52.43V52.43Z" fill="white"/>
<path fill-rule="evenodd" clip-rule="evenodd" d="M110.402 17.115C109.1 13.061 107.011 9.473 104.068 6.3855C103.324 5.6045 102.497 4.889 101.978 3.9175C101.65 3.3025 101.338 2.679 101.018 2.06L100.815 1.5495L100.759 1.7505C100.732 2.7605 100.16 3.445 99.448 4.0845C98.646 4.8035 97.9 5.5845 97.13 6.339L94.762 9.4535L92.8475 12.9745L91.567 16.432L91.5285 16.4855C90.824 18.8 90.4765 21.18 90.306 23.583C90.2415 24.4865 90.3155 25.4025 90.366 26.3105C90.4385 27.6085 90.664 28.884 91.002 30.1405C92.2305 34.7035 94.724 38.488 98.1335 41.704C98.7665 42.3015 99.451 42.845 100.112 43.413L100.404 44.417L100.676 45.975L100.806 47.6015C100.805 47.9315 100.791 48.263 100.811 48.592C100.816 48.6765 100.926 48.7545 100.988 48.8355L101.54 49.0295L102.115 49.253L102.016 47.8075L102.012 46.3835L102.21 44.2145L102.354 43.7425L102.767 43.012C103.276 42.603 103.821 42.231 104.285 41.7755C105.123 40.952 105.96 40.117 106.711 39.2145C107.687 38.0447 108.521 36.763 109.195 35.3965C109.645 34.48 110.069 33.545 110.419 32.5875C110.728 31.7435 110.92 30.856 111.163 29.9875L111.227 29.8C111.73 27.456 111.814 25.088 111.63 22.705C111.481 20.7845 111.03 18.931 110.402 17.115V17.115ZM100.452 42.2525C100.529 41.867 100.624 41.4835 100.694 41.0965C100.624 41.4835 100.529 41.867 100.452 42.2525ZM102.16 42.5185L101.837 41.811L102.16 42.5185L102.635 42.924L102.16 42.5185ZM122.237 51.482C121.824 50.6905 121.218 50.0895 120.417 49.695C119.746 49.365 119.025 49.22 118.283 49.199C117.727 49.183 117.169 49.2115 116.612 49.2185C116.117 49.2245 115.622 49.233 115.128 49.2285C114.546 49.2225 113.965 49.205 113.383 49.1885C113.287 49.1855 113.218 49.205 113.173 49.303C113.103 49.4555 113.019 49.6025 112.933 49.7695L113.03 49.8005C113.318 49.8515 113.608 49.895 113.895 49.9525C114.264 50.026 114.43 50.238 114.447 50.549C114.472 50.992 114.482 51.436 114.481 51.88C114.473 53.637 114.461 55.394 114.448 57.1505C114.447 57.2665 114.445 57.3875 114.413 57.4965C114.377 57.6225 114.337 57.7855 114.243 57.8475C114.074 57.9561 113.884 58.0285 113.686 58.06C113.405 58.106 113.358 58.1185 113.271 58.3945L113.233 58.5325C113.191 58.683 113.213 58.7125 113.37 58.714C114.271 58.724 115.172 58.7435 116.072 58.7405C116.894 58.7375 117.715 58.7875 118.534 58.633C119.307 58.4875 120.029 58.2325 120.688 57.801C121.543 57.2405 122.158 56.4915 122.483 55.514C122.745 54.7245 122.803 53.919 122.714 53.0935C122.658 52.531 122.497 51.9841 122.237 51.482V51.482ZM120.659 56.3125C120.177 57.2095 119.458 57.8085 118.43 57.9665C117.787 58.065 117.142 58.0365 116.529 57.793C116.14 57.639 115.996 57.3035 115.984 56.907C115.973 56.5184 115.967 56.1297 115.967 55.741C115.965 54.374 115.965 53.007 115.967 51.6405C115.968 51.21 115.976 50.7785 115.983 50.3475C115.988 50.0445 116.051 49.943 116.347 49.9185C117.645 49.8095 118.883 49.9495 119.912 50.863C120.548 51.428 120.91 52.1485 121.06 52.976C121.123 53.321 121.142 53.674 121.181 54.024C121.149 54.823 121.041 55.6005 120.659 56.3125ZM131.553 54.832C131.297 54.209 130.812 53.8185 130.203 53.5685C129.995 53.483 129.78 53.4125 129.556 53.3295L129.634 53.2795C129.877 53.124 130.147 52.9985 130.356 52.807C130.864 52.3415 131.075 51.756 130.976 51.0605C130.882 50.399 130.552 49.9135 129.962 49.5985C129.427 49.3135 128.85 49.2095 128.253 49.21C127.22 49.211 126.187 49.2265 125.154 49.2285C124.798 49.229 124.442 49.2025 124.086 49.1975C124.017 49.1965 123.914 49.214 123.885 49.26C123.803 49.385 123.749 49.529 123.691 49.668C123.658 49.749 123.691 49.7935 123.783 49.8055C124.032 49.8395 124.28 49.882 124.529 49.919C124.873 49.9705 125.039 50.1495 125.06 50.496L125.065 50.7015C125.065 51.779 125.069 52.8565 125.064 53.934C125.058 55.01 125.047 56.086 125.034 57.162C125.032 57.2975 125.014 57.4335 124.994 57.568C124.965 57.771 124.856 57.911 124.648 57.955L124.06 58.071C123.99 58.085 123.89 58.083 123.861 58.126C123.753 58.2875 123.666 58.464 123.678 58.677L123.739 58.6935L125.715 58.742L126.112 58.7405C126.796 58.7325 127.481 58.746 128.164 58.711C128.903 58.674 129.598 58.4545 130.24 58.077C130.923 57.6745 131.449 57.144 131.636 56.346C131.756 55.8365 131.757 55.324 131.553 54.832V54.832ZM126.532 50.2415C126.535 50.025 126.63 49.931 126.845 49.9255C127.375 49.911 127.901 49.914 128.412 50.0965C129.073 50.3325 129.479 50.9025 129.472 51.599C129.468 51.8665 129.472 52.1315 129.374 52.3885C129.179 52.8945 128.806 53.1615 128.277 53.2135C128.001 53.2415 127.723 53.2445 127.477 53.2575L126.656 53.2215C126.547 53.2175 126.499 53.1695 126.5 53.0575L126.532 50.2415V50.2415ZM129.935 56.9885C129.67 57.564 129.188 57.8665 128.585 57.9715C128.104 58.054 127.61 58.0323 127.139 57.908C126.786 57.8175 126.642 57.534 126.571 57.2195C126.524 57.009 126.532 56.7585 126.528 56.5395C126.521 56.2015 126.526 55.5 126.526 55.5H126.519C126.519 55 126.521 54.567 126.518 54.0875C126.517 53.984 126.535 53.9325 126.661 53.9365C127.11 53.95 127.561 53.9575 128.01 53.975C128.411 53.9905 128.787 54.1095 129.141 54.3C129.679 54.59 130.003 55.034 130.092 55.644C130.16 56.1065 130.131 56.5615 129.935 56.9885V56.9885ZM80.641 57.5275L80.6505 54.809C80.652 54.4 80.6 53.999 80.466 53.611C80.0965 52.5425 79.0775 52.056 78.0165 52.4395C77.534 52.614 77.1015 52.8785 76.6885 53.1785C76.448 53.3535 76.448 53.3535 76.274 53.104C75.7815 52.398 75.078 52.1565 74.259 52.417C73.7295 52.585 73.2665 52.8725 72.828 53.2065C72.787 53.2375 72.7045 53.272 72.68 53.2535C72.639 53.223 72.6105 53.1505 72.6115 53.096L72.6415 52.613C72.644 52.5115 72.6245 52.4095 72.6145 52.303C72.4165 52.3715 72.2585 52.44 72.093 52.48C71.5815 52.605 71.0665 52.72 70.552 52.8375C70.4275 52.866 70.296 52.9035 70.284 53.0465C70.2715 53.187 70.407 53.2105 70.512 53.2525C70.733 53.3415 70.9525 53.436 71.171 53.532C71.3545 53.613 71.423 53.7595 71.422 53.9565C71.4185 54.799 71.424 55.6405 71.419 56.483C71.417 56.8255 71.401 57.1675 71.3855 57.51C71.3715 57.8135 71.268 57.9405 70.974 58.017C70.818 58.058 70.6595 58.0855 70.5025 58.1225C70.468 58.1305 70.409 58.1525 70.4085 58.1695C70.402 58.318 70.394 58.47 70.419 58.6145C70.424 58.6405 70.581 58.6405 70.668 58.6505L70.7265 58.647C71.3325 58.638 71.9385 58.6285 72.545 58.622C72.8665 58.6185 73.1875 58.6215 73.5365 58.6215L73.574 58.1365C73.374 58.1 73.1955 58.0725 73.0195 58.034C72.745 57.974 72.628 57.8285 72.621 57.5515L72.616 57.155C72.613 56.1265 72.609 55.0985 72.609 54.07C72.609 53.9205 72.671 53.802 72.8025 53.7125C73.081 53.5245 73.375 53.375 73.7005 53.2915C74.3865 53.116 74.9815 53.36 75.2455 53.9435C75.329 54.1275 75.3945 54.331 75.413 54.531C75.51 55.562 75.468 56.594 75.4095 57.625C75.397 57.8475 75.2925 57.9595 75.073 58.014L74.557 58.123C74.5155 58.1335 74.455 58.1055 74.452 58.14C74.4405 58.2825 74.447 58.501 74.447 58.501H74.57L76.141 58.5525C76.5715 58.5515 77.0025 58.6035 77.4325 58.6145C77.5095 58.616 77.578 58.6275 77.5825 58.5385C77.5874 58.4003 77.5856 58.262 77.577 58.124L77.495 58.1095L77.0525 58.01C76.754 57.9395 76.651 57.826 76.65 57.524C76.6465 56.7795 76.6565 56.0355 76.65 55.2915C76.6462 54.866 76.6303 54.4406 76.6025 54.016C76.595 53.903 76.6125 53.829 76.7025 53.7655C76.9634 53.5748 77.2568 53.4333 77.5685 53.348C78.536 53.093 79.328 53.6235 79.378 54.621C79.427 55.583 79.4065 56.5485 79.399 57.5125C79.3965 57.848 79.2855 57.9495 78.955 58.0395L78.841 58.069C78.5025 58.15 78.5055 58.15 78.5255 58.5095C78.532 58.622 78.563 58.651 78.683 58.648C79.3725 58.6325 80.062 58.6285 80.7515 58.6225C81.0335 58.62 81.3155 58.6225 81.6225 58.6225L81.685 58.1545C81.4155 58.083 81.167 58.03 80.927 57.9515C80.715 57.8795 80.64 57.7515 80.641 57.5275V57.5275ZM104.386 53.407C104.67 53.1435 104.672 52.7955 104.592 52.409C104.367 52.6445 104.115 52.753 103.828 52.7735C103.442 52.801 103.064 52.7675 102.705 52.614C101.734 52.197 100.778 52.2265 99.8245 52.684C99.023 53.068 98.53 53.6665 98.4805 54.574C98.449 55.1555 98.558 55.706 98.946 56.1685C99.1785 56.4455 99.477 56.625 99.8135 56.749C99.9585 56.8025 99.9695 56.8715 99.848 56.964C99.7583 57.0318 99.6653 57.0952 99.5695 57.154C99.3664 57.2817 99.1621 57.4073 98.9565 57.531C98.836 57.604 98.795 57.697 98.8345 57.8395C98.95 58.2585 99.2475 58.5005 99.6195 58.677L99.755 58.7715L99.6365 58.89C99.272 59.1855 98.893 59.4645 98.544 59.778C98.251 60.0415 98.1565 60.3945 98.245 60.784C98.4235 61.5615 98.939 62.0425 99.6705 62.2635C100.949 62.6505 102.15 62.4285 103.244 61.671C103.893 61.2215 104.359 60.6365 104.5 59.8315C104.659 58.927 104.156 58.142 103.257 57.98C102.662 57.872 102.053 57.841 101.451 57.772C101.17 57.74 100.885 57.721 100.611 57.6565C100.379 57.6015 100.263 57.412 100.285 57.227C100.306 57.045 100.5 56.8755 100.721 56.858C101.167 56.822 101.604 56.7525 102.015 56.5645C103.104 56.0665 103.61 55.1945 103.483 54.0205C103.467 53.8625 103.431 53.7065 103.398 53.5225C103.747 53.581 104.103 53.6695 104.386 53.407V53.407ZM101.081 58.9155C101.524 58.9285 102.028 58.956 102.515 59.0985C102.944 59.2235 103.296 59.4425 103.4 59.921C103.526 60.499 103.248 61.074 102.688 61.383C102.164 61.672 101.595 61.696 101.018 61.6365C100.524 61.5855 100.08 61.4145 99.7235 61.0495C99.2545 60.569 99.252 59.904 99.7215 59.425C100.141 58.997 100.366 58.9085 101.081 58.9155V58.9155ZM102.19 55.4345C101.932 56.26 101.181 56.374 100.592 56.11C100.091 55.8855 99.872 55.4435 99.7575 54.939C99.713 54.745 99.7025 54.5435 99.6765 54.345C99.687 54.0605 99.734 53.7875 99.8565 53.5315C100.232 52.743 101.155 52.79 101.665 53.147C101.884 53.3 102.037 53.508 102.132 53.7545C102.345 54.2911 102.365 54.8847 102.19 55.4345V55.4345ZM97.5045 58.066C97.3259 58.0387 97.1493 57.9993 96.976 57.948C96.672 57.855 96.635 57.798 96.6315 57.4765C96.6225 56.5805 96.6165 55.6845 96.6065 54.789C96.6015 54.386 96.5535 53.9885 96.43 53.6035C96.105 52.5885 95.1095 52.0435 94.1135 52.343C93.5615 52.5095 93.0875 52.819 92.646 53.1825L92.485 53.306L92.4855 53.1405C92.496 52.95 92.5165 52.7595 92.515 52.569C92.514 52.4695 92.476 52.3695 92.4575 52.282C92.081 52.3955 91.7435 52.5095 91.399 52.5965C91.0535 52.6835 90.701 52.7425 90.3515 52.8135C90.178 52.8485 90.0505 52.9535 90.0535 53.073C90.058 53.2415 90.1975 53.274 90.3195 53.3245C90.5405 53.415 90.761 53.5065 90.9795 53.6035C91.1355 53.673 91.199 53.802 91.1975 53.9695C91.1865 55.134 91.1795 56.299 91.1625 57.464C91.1575 57.832 91.0645 57.929 90.7025 58.01L90.5445 58.0415C90.2095 58.099 90.2 58.1125 90.223 58.466L90.225 58.5245C90.221 58.6605 90.2805 58.7045 90.4205 58.703C91.3105 58.6925 92.201 58.6875 93.091 58.691C93.4725 58.6925 93.5135 58.6625 93.5055 58.2705L93.4875 58.102C93.2695 58.0655 93.061 58.039 92.857 57.994C92.6435 57.9465 92.567 57.859 92.547 57.642C92.5285 57.4435 92.5225 57.242 92.5205 57.042C92.5105 56.1265 92.5025 55.211 92.498 54.296C92.497 54.0655 92.5395 53.8515 92.7515 53.703C93.0635 53.48 93.4314 53.3481 93.814 53.322C94.608 53.2675 95.2115 53.738 95.2545 54.5295C95.3075 55.506 95.2915 56.486 95.304 57.4645C95.305 57.5375 95.292 57.611 95.282 57.6835C95.263 57.8265 95.193 57.934 95.048 57.971C94.9065 58.008 94.763 58.041 94.6185 58.063C94.403 58.095 94.3985 58.0935 94.382 58.311L94.3875 58.4575C94.413 58.7105 94.4135 58.703 94.6695 58.7005C95.5305 58.6935 96.391 58.689 97.2515 58.69C97.6115 58.691 97.637 58.674 97.64 58.303L97.639 58.215C97.6445 58.12 97.602 58.0815 97.5045 58.066V58.066ZM109.531 52.4045C108.628 52.184 107.772 52.348 106.959 52.7685C106.169 53.177 105.641 53.8085 105.44 54.6805C105.237 55.562 105.334 56.422 105.724 57.2405C105.977 57.772 106.367 58.183 106.898 58.45C108.141 59.076 109.662 58.792 110.637 57.9545C111.406 57.294 111.689 56.4145 111.706 55.326C111.695 55.217 111.685 55.007 111.656 54.799C111.492 53.614 110.672 52.6835 109.531 52.4045V52.4045ZM110.214 56.982C109.975 57.925 109.159 58.344 108.239 58.02C107.77 57.855 107.419 57.5395 107.183 57.113C106.64 56.133 106.535 55.091 106.844 54.022C107.05 53.31 107.636 52.9205 108.333 52.9695C108.956 53.013 109.435 53.312 109.787 53.819C110.157 54.354 110.3 54.9625 110.338 55.6015C110.345 55.704 110.339 55.8065 110.339 55.9095L110.383 55.9145C110.328 56.271 110.302 56.6345 110.214 56.982V56.982ZM86.832 52.389C85.8825 52.172 84.993 52.3865 84.169 52.869C83.4565 53.286 82.996 53.909 82.8195 54.723C82.654 55.4835 82.7215 56.231 82.991 56.9595C83.155 57.4035 83.4035 57.794 83.768 58.0985C84.5355 58.739 85.4325 58.901 86.387 58.7225C87.195 58.571 87.905 58.212 88.421 57.5405C88.904 56.9125 89.088 56.1915 89.107 55.41C89.0785 55.1625 89.0715 54.9105 89.019 54.669C88.758 53.4635 88.053 52.6675 86.832 52.389V52.389ZM87.6065 56.979C87.375 57.917 86.5465 58.3465 85.633 58.0225C85.0465 57.814 84.6645 57.3845 84.423 56.834C84.036 55.9495 83.957 55.029 84.2075 54.096C84.3995 53.3825 84.978 52.857 85.8635 52.983C86.407 53.06 86.831 53.3375 87.147 53.779C87.574 54.3745 87.7145 55.0565 87.734 55.773V55.9195L87.77 55.925C87.7175 56.277 87.6915 56.635 87.6065 56.979V56.979Z" fill="#4FAA41"/>
</svg>
