<svg width="204" height="205" viewBox="0 0 204 205" fill="none" xmlns="http://www.w3.org/2000/svg">
<path d="M71 1H133.592V63.5925H71V1Z" fill="#F0DB4F"/>
<path d="M128.019 48.2688C127.56 45.4133 125.698 43.0148 120.183 40.7783C118.267 39.8978 116.13 39.2673 115.494 37.8153C115.268 36.9703 115.238 36.4943 115.381 35.9828C115.791 34.3228 117.773 33.8053 119.343 34.2813C120.355 34.6203 121.312 35.3998 121.89 36.6433C124.591 34.8943 124.585 34.9058 126.471 33.7038C125.781 32.6333 125.413 32.1393 124.961 31.6813C123.336 29.8668 121.122 28.9323 117.582 29.0038L115.739 29.2423C113.972 29.6888 112.288 30.6163 111.3 31.8598C108.337 35.2218 109.182 41.1058 112.788 43.5273C116.34 46.1933 121.557 46.7998 122.224 49.2928C122.872 52.3448 119.981 53.3328 117.107 52.9818C114.989 52.5413 113.811 51.4648 112.538 49.5073C110.194 50.8638 110.193 50.8638 107.783 52.2498C108.355 53.4993 108.955 54.0648 109.913 55.1473C114.447 59.7463 125.793 59.5203 127.828 52.5593C127.911 52.3203 128.459 50.7263 128.019 48.2688V48.2688ZM104.576 29.3723H98.7215L98.6975 44.5083C98.6975 47.7273 98.864 50.6783 98.3405 51.5828C97.484 53.3618 95.2645 53.1413 94.253 52.7963C93.2235 52.2903 92.7 51.5708 92.0935 50.5538C91.927 50.2618 91.802 50.0358 91.76 50.0183L87 52.9333C87.7915 54.5578 88.9575 55.9678 90.451 56.8838C92.682 58.2228 95.6805 58.6333 98.8165 57.9133C100.857 57.3188 102.618 56.0873 103.54 54.2128C104.873 51.7553 104.587 48.7808 104.575 45.4908C104.605 40.1233 104.576 34.7568 104.576 29.3723V29.3723Z" fill="#323330"/>
<path d="M151.335 23.5H201.17V60.335H151.335V23.5Z" fill="white"/>
<path d="M140.75 31.955V63.205H203.25V0.705002H140.75V31.955ZM191.115 29.455C192.612 29.8024 193.972 30.5853 195.025 31.705C195.604 32.3082 196.108 32.9798 196.525 33.705C196.525 33.785 193.825 35.61 192.18 36.63C192.12 36.67 191.88 36.41 191.615 36.015C191.315 35.4968 190.888 35.0632 190.375 34.7546C189.862 34.4459 189.278 34.2723 188.68 34.25C186.785 34.12 185.565 35.115 185.575 36.75C185.559 37.1571 185.653 37.561 185.845 37.92C186.26 38.785 187.035 39.3 189.465 40.35C193.94 42.275 195.855 43.545 197.045 45.35C198.375 47.35 198.67 50.58 197.77 52.97C196.77 55.57 194.32 57.335 190.855 57.92C189.272 58.1013 187.673 58.0845 186.095 57.87C183.676 57.4712 181.447 56.3097 179.735 54.555C179.16 53.92 178.04 52.265 178.11 52.145C178.293 52.0095 178.485 51.8875 178.685 51.78L181 50.5L182.795 49.46L183.17 50.015C183.803 50.9203 184.608 51.6917 185.54 52.285C187.54 53.335 190.27 53.19 191.62 51.975C192.073 51.5298 192.356 50.9397 192.419 50.3075C192.482 49.6753 192.321 49.041 191.965 48.515C191.465 47.82 190.465 47.235 187.67 46.015C184.445 44.625 183.055 43.765 181.785 42.395C180.992 41.4909 180.407 40.4243 180.07 39.27C179.819 37.9512 179.782 36.6006 179.96 35.27C180.625 32.155 182.96 29.98 186.37 29.335C187.949 29.1396 189.549 29.1834 191.115 29.465V29.455ZM176.445 32.075V34.635H168.33V57.75H162.575V34.63H154.44V32.13C154.415 31.2679 154.435 30.405 154.5 29.545C154.54 29.5 159.5 29.5 165.5 29.5H176.415L176.445 32.075Z" fill="#007ACC"/>
<path d="M35.6999 89.4C34.9499 89.1 33.7499 88.9 32.2499 88.85C30.1499 88.8 27.7499 89.05 27.6499 89.1V99.1C34.2999 99.4 35.3999 98.25 35.3999 98.25C41.1999 95.3 37.5499 90.15 35.6999 89.4V89.4Z" fill="#75AADB"/>
<path d="M32 70C14.3 70 0 84.3 0 102C0 119.7 14.3 134 32 134C49.7 134 64 119.7 64 102C64 84.3 49.65 70 32 70ZM46.3 114.9H41L32.2 101.75H27.7V112H32.2V114.9H20.75V112.05L24.55 112L24.5 89.05C24.1 88.95 20.75 88.65 20.75 88.65V86C21.25 86.5 24.7 86.6 24.7 86.6C25.5 86.65 26.65 86.7 27.3 86.55C31.95 85.7 35.5 86.35 35.5 86.35C42.5 87.95 42.6 94.25 40.65 97.65C38.9 100.55 35.5 101.25 35.5 101.25L42.7 112.15L46.3 112.1V114.9V114.9Z" fill="#75AADB"/>
<path d="M20.7976 113.537V112.174L21.7076 112.103C22.332 112.059 22.9577 112.035 23.5836 112.031H24.5491V88.998L24.0801 88.9345C23.8221 88.8995 22.9781 88.8105 22.2041 88.736L20.7976 88.601V87.346C20.7976 86.18 20.8111 86.0985 20.9926 86.196C21.7841 86.6195 26.3426 86.731 28.9076 86.39C31.0086 86.111 34.6551 86.1775 35.9251 86.5185C38.6666 87.2545 40.4801 88.8415 41.3371 91.255C41.6956 92.264 41.7456 94.1785 41.4451 95.367C40.9936 97.153 40.2501 98.391 39.0126 99.4175C38.2716 100.033 36.5891 100.933 35.9401 101.063C35.7416 101.102 35.5541 101.175 35.5241 101.223C35.4941 101.272 37.0856 103.759 39.0616 106.75L42.6536 112.188L44.4701 112.154L46.2871 112.12V114.9L43.6661 114.896L41.0461 114.893L36.6361 108.276L32.2276 101.659H27.6386V112.031H32.1631V114.9H20.7976V113.537ZM33.3766 98.9555C35.1146 98.6805 37.0091 97.5685 37.8631 96.324C39.1186 94.4925 38.6316 91.829 36.7161 90.0505C36.0376 89.4205 35.6136 89.2355 34.3191 89.0005C33.2571 88.8075 29.9891 88.7735 28.4661 88.9395L27.6941 89.0235L27.6651 94.065L27.6366 99.106L27.9966 99.159C28.6796 99.259 32.3316 99.1215 33.3766 98.9555V98.9555Z" fill="white" stroke="white" stroke-width="0.788"/>
<path d="M93.8516 118.833C93.8516 118.833 91.4681 120.22 95.5501 120.688C100.496 121.252 103.024 121.171 108.473 120.141C108.473 120.141 109.908 121.039 111.909 121.817C99.6896 127.052 84.2551 121.514 93.8516 118.833ZM92.3576 112C92.3576 112 89.6836 113.98 93.7691 114.403C99.0526 114.948 103.224 114.993 110.446 113.603C110.446 113.603 111.443 114.615 113.012 115.168C98.2411 119.488 81.7891 115.508 92.3576 112V112Z" fill="#0074BD"/>
<path d="M104.761 101.094C107.773 104.561 103.971 107.679 103.971 107.679C103.971 107.679 111.615 103.733 108.105 98.79C104.826 94.1825 102.312 91.894 115.923 84C115.923 84.0005 94.5571 89.335 104.761 101.094V101.094Z" fill="#EA2D2E"/>
<path d="M121.077 124.569C121.077 124.569 122.841 126.024 119.133 127.148C112.082 129.284 89.7798 129.928 83.5858 127.234C81.3603 126.265 85.5353 124.921 86.8488 124.638C88.2183 124.341 89.0003 124.395 89.0003 124.395C86.5238 122.652 72.9938 127.82 82.1288 129.303C107.039 133.341 127.537 127.484 121.077 124.569V124.569ZM94.9713 105.601C94.9713 105.601 83.6283 108.296 90.9548 109.275C94.0488 109.689 100.214 109.594 105.96 109.112C110.655 108.718 115.367 107.875 115.367 107.875C115.367 107.875 113.713 108.585 112.515 109.402C100.994 112.432 78.7428 111.021 85.1493 107.923C90.5653 105.303 94.9713 105.601 94.9713 105.601V105.601ZM115.32 116.975C127.03 110.891 121.615 105.045 117.836 105.832C116.912 106.025 116.497 106.192 116.497 106.192C116.497 106.192 116.841 105.653 117.497 105.421C124.974 102.793 130.723 113.172 115.086 117.283C115.086 117.282 115.265 117.12 115.32 116.975V116.975Z" fill="#0074BD"/>
<path d="M108.428 71C108.428 71 114.912 77.488 102.276 87.4615C92.1432 95.4645 99.9657 100.027 102.273 105.241C96.3572 99.9045 92.0182 95.206 94.9287 90.8335C99.2027 84.4165 111.043 81.304 108.428 71Z" fill="#EA2D2E"/>
<path d="M95.8235 132.718C107.061 133.437 124.323 132.318 124.732 127C124.732 127 123.947 129.016 115.444 130.616C105.851 132.422 94.0165 132.211 87 131.053C87 131.053 88.4375 132.243 95.8235 132.718V132.718Z" fill="#0074BD"/>
<path d="M140 71H172.7L140 103.2V71Z" fill="url(#paint0_linear_0_1)"/>
<path d="M204 135L172.3 102.3L140 135H204Z" fill="url(#paint1_linear_0_1)"/>
<path d="M140 135L204 71H172.3L140 102.85V135Z" fill="url(#paint2_linear_0_1)"/>
<path d="M89.7 156.25L65.55 142.35C65.15 142.1 64.6 142 64 142C63.4 142 62.85 142.15 62.45 142.35L38.45 156.3C37.6 156.8 37 158.05 37 159V186.85C37 187.4 37.1 188.05 37.5 188.6L90.9 157.6C90.6 157 90.15 156.55 89.7 156.25V156.25Z" fill="#659AD3"/>
<path d="M37 189C37.25 189.4 37.6 189.75 37.95 189.95L62.05 203.9C62.45 204.15 63 204.25 63.6 204.25C64.2 204.25 64.75 204.1 65.15 203.9L89.15 189.95C90 189.45 90.6 188.2 90.6 187.25V159.4C90.6 158.95 90.55 158.45 90.3 158L37 189V189Z" fill="#03599C"/>
<path d="M74.4 178.8C72.3 182.5 68.3 185 63.75 185C57 185 51.5 179.5 51.5 172.75C51.5 166 57 160.5 63.75 160.5C68.3 160.5 72.3 163 74.4 166.75L80.9 163C77.5 157.05 71.1 153 63.75 153C52.85 153 44 161.85 44 172.75C44 183.65 52.85 192.5 63.75 192.5C71.05 192.5 77.45 188.5 80.85 182.6L74.4 178.8V178.8Z" fill="white"/>
<path d="M165.7 156.25L141.55 142.35C141.15 142.1 140.6 142 140 142C139.4 142 138.85 142.15 138.45 142.35L114.45 156.3C113.6 156.8 113 158.05 113 159V186.85C113 187.4 113.1 188.05 113.5 188.6L166.9 157.6C166.6 157 166.15 156.55 165.7 156.25V156.25Z" fill="#9B4F96"/>
<path d="M113 189C113.25 189.4 113.6 189.75 113.95 189.95L138.05 203.9C138.45 204.15 139 204.25 139.6 204.25C140.2 204.25 140.75 204.1 141.15 203.9L165.15 189.95C166 189.45 166.6 188.2 166.6 187.25V159.4C166.6 158.95 166.55 158.45 166.3 158L113 189V189Z" fill="#68217A"/>
<path d="M150.4 178.8C148.3 182.5 144.3 185 139.75 185C133 185 127.5 179.5 127.5 172.75C127.5 166 133 160.5 139.75 160.5C144.3 160.5 148.3 163 150.4 166.75L156.9 163C153.5 157.05 147.1 153 139.75 153C128.85 153 120 161.85 120 172.75C120 183.65 128.85 192.5 139.75 192.5C147.05 192.5 153.45 188.5 156.85 182.6L150.4 178.8V178.8ZM156.25 173.85L156.7 171.7H154.6V169.35H157.15L157.75 166.25H160.2L159.6 169.3H161.5L162.1 166.25H164.5L163.9 169.3H165.1V171.65H163.45L163 173.8H165.1V176.15H162.55L161.95 179.15H159.5L160.1 176.15H158.2L157.6 179.15H155.2L155.8 176.15H154.6V173.8H156.25V173.85ZM158.65 173.85H160.55L161 171.7H159.1L158.65 173.85Z" fill="white"/>
<path d="M31.6956 6.12399C29.5846 6.13399 27.5696 6.31349 25.7956 6.62749C20.5706 7.55049 19.6226 9.48249 19.6226 13.046V17.7515H31.9691V19.32H14.9886C11.4006 19.32 8.2586 21.4765 7.2756 25.5805C6.1416 30.283 6.0916 33.218 7.2756 38.1285C8.1531 41.784 10.2491 44.388 13.8376 44.388H18.0831V38.747C18.0831 34.6715 21.6086 31.077 25.7961 31.077H38.1286C41.5616 31.077 44.3016 28.25 44.3016 24.803V13.0465C44.3016 9.69999 41.4786 7.18649 38.1286 6.62799C36.0066 6.27499 33.8061 6.11449 31.6956 6.12399V6.12399ZM25.0186 9.90849C26.2936 9.90849 27.3356 10.967 27.3356 12.269C27.3356 13.5655 26.2941 14.614 25.0186 14.614C23.7386 14.614 22.7021 13.5655 22.7021 12.269C22.7016 10.967 23.7386 9.90849 25.0186 9.90849V9.90849Z" fill="url(#paint3_linear_0_1)"/>
<path d="M45.8411 19.32V24.803C45.8411 29.053 42.2371 32.6305 38.1281 32.6305H25.7956C22.4176 32.6305 19.6226 35.522 19.6226 38.905V50.6625C19.6226 54.008 22.5316 55.9765 25.7956 56.936C29.7036 58.0845 33.4516 58.2925 38.1281 56.936C41.2361 56.0355 44.3011 54.2245 44.3011 50.6625V45.9565H31.9691V44.3875H50.4751C54.0631 44.3875 55.4011 41.885 56.6491 38.128C57.9381 34.2605 57.8826 30.541 56.6491 25.58C55.7621 22.0075 54.0686 19.3195 50.4751 19.3195H45.8411V19.32ZM38.9046 49.0935C40.1851 49.0935 41.2216 50.142 41.2216 51.4395C41.2216 52.7405 40.1846 53.799 38.9046 53.799C37.6296 53.799 36.5881 52.7405 36.5881 51.4395C36.5881 50.142 37.6296 49.0935 38.9046 49.0935V49.0935Z" fill="url(#paint4_linear_0_1)"/>
<path opacity="0.444" d="M48.6545 59.7985C48.6545 61.57 41.2465 63.0065 32.109 63.0065C22.971 63.0065 15.563 61.57 15.563 59.7985C15.563 58.0265 22.9705 56.59 32.109 56.59C41.2465 56.59 48.6545 58.026 48.6545 59.7985Z" fill="url(#paint5_radial_0_1)"/>
<defs>
<linearGradient id="paint0_linear_0_1" x1="134.05" y1="95.347" x2="160.15" y2="66.839" gradientUnits="userSpaceOnUse">
<stop stop-color="#1C93C1"/>
<stop offset="0.163" stop-color="#2391C0"/>
<stop offset="0.404" stop-color="#378BBE"/>
<stop offset="0.696" stop-color="#587EB9"/>
<stop offset="0.995" stop-color="#7F6CB1"/>
</linearGradient>
<linearGradient id="paint1_linear_0_1" x1="161.776" y1="145.587" x2="187.994" y2="118.438" gradientUnits="userSpaceOnUse">
<stop stop-color="#1C93C1"/>
<stop offset="0.216" stop-color="#2D8EBF"/>
<stop offset="0.64" stop-color="#587EB9"/>
<stop offset="0.995" stop-color="#7F6CB1"/>
</linearGradient>
<linearGradient id="paint2_linear_0_1" x1="141.62" y1="118.624" x2="186.24" y2="72.058" gradientUnits="userSpaceOnUse">
<stop stop-color="#C757A7"/>
<stop offset="0.046" stop-color="#CA5A9E"/>
<stop offset="0.241" stop-color="#D66779"/>
<stop offset="0.428" stop-color="#E17357"/>
<stop offset="0.6" stop-color="#E97C3A"/>
<stop offset="0.756" stop-color="#EF8324"/>
<stop offset="0.888" stop-color="#F28817"/>
<stop offset="0.982" stop-color="#F48912"/>
</linearGradient>
<linearGradient id="paint3_linear_0_1" x1="5.16854" y1="7.59531" x2="33.6454" y2="31.8802" gradientUnits="userSpaceOnUse">
<stop stop-color="#5A9FD4"/>
<stop offset="1" stop-color="#306998"/>
</linearGradient>
<linearGradient id="paint4_linear_0_1" x1="44.3595" y1="46.9762" x2="34.1472" y2="32.6551" gradientUnits="userSpaceOnUse">
<stop stop-color="#FFD43B"/>
<stop offset="1" stop-color="#FFE873"/>
</linearGradient>
<radialGradient id="paint5_radial_0_1" cx="0" cy="0" r="1" gradientUnits="userSpaceOnUse" gradientTransform="translate(32.0421 59.7066) rotate(-90) scale(3.20916 14.1069)">
<stop stop-color="#B8B8B8" stop-opacity="0.498"/>
<stop offset="1" stop-color="#7F7F7F" stop-opacity="0"/>
</radialGradient>
</defs>
</svg>
