<svg width="48" height="48" viewBox="0 0 48 48" fill="none" xmlns="http://www.w3.org/2000/svg">
<path d="M43.5 1.12499H4.5C3.61512 1.11598 2.7628 1.45838 2.13007 2.07705C1.49734 2.69572 1.13588 3.54013 1.125 4.42499V43.5825C1.13785 44.466 1.50017 45.3085 2.13269 45.9256C2.7652 46.5426 3.6164 46.884 4.5 46.875H43.5C44.3849 46.882 45.2367 46.5384 45.8691 45.9194C46.5015 45.3003 46.8631 44.4561 46.875 43.5712V4.41374C46.8592 3.53147 46.4958 2.69109 45.8639 2.07526C45.2319 1.45943 44.3824 1.11793 43.5 1.12499V1.12499Z" fill="#0076B2"/>
<path d="M7.89742 18.2737H14.6887V40.125H7.89742V18.2737ZM11.2949 7.39874C12.0738 7.39874 12.8353 7.62977 13.4829 8.06259C14.1305 8.49542 14.6351 9.11059 14.9331 9.83029C15.231 10.55 15.3087 11.3419 15.1565 12.1058C15.0043 12.8697 14.6289 13.5713 14.0778 14.1218C13.5268 14.6723 12.8248 15.047 12.0608 15.1985C11.2967 15.35 10.5049 15.2715 9.78551 14.9729C9.06609 14.6743 8.4514 14.1691 8.01919 13.5211C7.58698 12.8731 7.35668 12.1114 7.35742 11.3325C7.35842 10.2889 7.7737 9.2883 8.51202 8.55068C9.25033 7.81307 10.2513 7.39874 11.2949 7.39874ZM18.9487 18.2737H25.4587V21.2737H25.5487C26.4562 19.5562 28.6687 17.745 31.9724 17.745C38.8499 17.73 40.1249 22.2562 40.1249 28.125V40.125H33.3337V29.4937C33.3337 26.9625 33.2887 23.7037 29.8049 23.7037C26.3212 23.7037 25.7287 26.4637 25.7287 29.3287V40.125H18.9487V18.2737Z" fill="white"/>
</svg>
