<svg width="151" height="133" viewBox="0 0 151 133" fill="none" xmlns="http://www.w3.org/2000/svg">
<path fill-rule="evenodd" clip-rule="evenodd" d="M76.0002 2.55151C59.3267 2.55151 45.8062 16.069 45.8062 32.7455C45.8062 46.0865 54.4577 57.404 66.4547 61.397C67.9632 61.677 68.5172 60.742 68.5172 59.9445C68.5172 59.2245 68.4892 56.846 68.4762 54.323C60.0762 56.1495 58.3037 50.7605 58.3037 50.7605C56.9302 47.2705 54.9512 46.3425 54.9512 46.3425C52.2112 44.4685 55.1577 44.5075 55.1577 44.5075C58.1892 44.72 59.7862 47.619 59.7862 47.619C62.4792 52.234 66.8497 50.9 68.5727 50.129C68.8437 48.1775 69.6262 46.845 70.4897 46.091C63.7832 45.3285 56.7327 42.739 56.7327 31.1695C56.7327 27.873 57.9127 25.1795 59.8442 23.0645C59.5302 22.3045 58.4967 19.2335 60.1362 15.0745C60.1362 15.0745 62.6712 14.263 68.4412 18.1695C70.8502 17.5 73.4337 17.1635 76.0002 17.152C78.5652 17.1635 81.1502 17.499 83.5637 18.1685C89.3267 14.262 91.8587 15.0735 91.8587 15.0735C93.5022 19.232 92.4687 22.3035 92.1552 23.0635C94.0912 25.1785 95.2627 27.872 95.2627 31.1685C95.2627 42.7655 88.1992 45.3185 81.4757 46.0665C82.5592 47.0035 83.5242 48.8415 83.5242 51.658C83.5242 55.698 83.4892 58.9495 83.4892 59.944C83.4892 60.7475 84.0332 61.689 85.5632 61.3925C97.5532 57.3955 106.195 46.0815 106.195 32.7455C106.194 16.07 92.6752 2.55201 76.0002 2.55201V2.55151Z" fill="#D9D9D9"/>
<path d="M57.2423 45.903C57.1758 46.053 56.9398 46.098 56.7248 45.9955C56.5048 45.8975 56.3823 45.693 56.4533 45.5425C56.5183 45.3875 56.7548 45.345 56.9733 45.4485C57.1933 45.547 57.3183 45.7535 57.2418 45.9035L57.2423 45.903ZM58.4653 47.2675C58.3218 47.401 58.0403 47.339 57.8493 47.1275C57.6513 46.9175 57.6143 46.636 57.7608 46.5005C57.9098 46.3675 58.1828 46.4305 58.3808 46.6405C58.5778 46.8535 58.6168 47.1325 58.4658 47.268L58.4653 47.2675ZM59.6563 49.006C59.4713 49.135 59.1683 49.0145 58.9813 48.746C58.7963 48.477 58.7963 48.1545 58.9863 48.026C59.1728 47.897 59.4713 48.0135 59.6613 48.2795C59.8453 48.552 59.8453 48.8745 59.6563 49.0055V49.006ZM61.2868 50.6865C61.1218 50.869 60.7688 50.82 60.5108 50.5715C60.2473 50.328 60.1738 49.9815 60.3393 49.7995C60.5073 49.6165 60.8618 49.6675 61.1213 49.9145C61.3848 50.1575 61.4643 50.5045 61.2878 50.686L61.2868 50.6865ZM63.5368 51.662C63.4633 51.8985 63.1243 52.006 62.7818 51.905C62.4403 51.8015 62.2168 51.525 62.2868 51.286C62.3568 51.0475 62.6983 50.936 63.0428 51.0435C63.3843 51.1465 63.6078 51.4215 63.5368 51.662ZM66.0083 51.8425C66.0168 52.0915 65.7268 52.2975 65.3683 52.3025C65.0068 52.311 64.7143 52.109 64.7108 51.864C64.7108 51.6125 64.9948 51.409 65.3558 51.402C65.7143 51.3955 66.0088 51.5955 66.0088 51.842L66.0083 51.8425ZM68.3073 51.4515C68.3503 51.694 68.1008 51.9435 67.7443 52.01C67.3943 52.075 67.0693 51.924 67.0243 51.6835C66.9813 51.4345 67.2353 51.185 67.5853 51.1205C67.9423 51.059 68.2623 51.2055 68.3073 51.452V51.4515Z" fill="#D9D9D9"/>
<path d="M63.3076 105.155L59.7906 94.3315L52.8201 72.88C52.4621 71.777 50.9001 71.777 50.5421 72.88L43.5721 94.3315H20.4281L13.4581 72.88C13.0996 71.777 11.5381 71.777 11.1796 72.88L4.21009 94.332L0.69259 105.155C0.536146 105.636 0.536062 106.155 0.692349 106.636C0.848636 107.117 1.15327 107.537 1.56259 107.834L32.0001 129.947L62.4371 107.834C62.8462 107.536 63.1508 107.117 63.307 106.636C63.4633 106.154 63.4633 105.636 63.3071 105.155" fill="#FC6D26"/>
<path d="M32.0002 129.947L43.5722 94.332H20.4282L32.0002 129.946V129.947Z" fill="#E24329"/>
<path d="M32 129.947L20.428 94.332H4.20996L32 129.946V129.947Z" fill="#FC6D26"/>
<path d="M4.21015 94.3315L0.692146 105.155C0.535661 105.636 0.535558 106.154 0.691852 106.636C0.848146 107.117 1.15281 107.536 1.56215 107.834L32.0001 129.947L4.21015 94.332V94.3315Z" fill="#FCA326"/>
<path d="M4.20996 94.3315H20.428L13.458 72.88C13.0995 71.777 11.538 71.777 11.1795 72.88L4.20996 94.332V94.3315Z" fill="#E24329"/>
<path d="M32 129.947L43.572 94.332H59.7905L32 129.946V129.947Z" fill="#FC6D26"/>
<path d="M59.79 94.3315L63.3075 105.155C63.464 105.636 63.4641 106.154 63.3078 106.636C63.1515 107.117 62.8468 107.536 62.4375 107.834L32 129.947L59.79 94.332V94.3315Z" fill="#FCA326"/>
<path d="M59.7898 94.3315H43.5723L50.5423 72.8805C50.9008 71.7775 52.4623 71.7775 52.8208 72.8805L59.7908 94.332L59.7898 94.3315Z" fill="#E24329"/>
<path d="M149.371 98.189L121.812 70.632C120.226 69.045 117.652 69.045 116.064 70.632L110.342 76.355L117.601 83.614C119.289 83.0445 121.223 83.4265 122.567 84.771C123.208 85.4123 123.655 86.221 123.858 87.1046C124.061 87.9882 124.011 88.911 123.714 89.7675L130.71 96.7645C132.402 96.181 134.356 96.558 135.707 97.912C137.597 99.8005 137.597 102.862 135.707 104.751C135.258 105.201 134.724 105.557 134.137 105.801C133.551 106.044 132.921 106.169 132.286 106.169C131.651 106.169 131.022 106.044 130.435 105.801C129.848 105.557 129.314 105.201 128.865 104.751C128.191 104.076 127.731 103.217 127.543 102.28C127.356 101.344 127.45 100.374 127.813 99.491L121.289 92.9665L121.288 110.137C121.761 110.37 122.193 110.679 122.567 111.051C124.457 112.939 124.457 116 122.567 117.892C120.678 119.781 117.615 119.781 115.728 117.892C113.839 116 113.684 112.94 115.572 111.051C116.039 110.584 116.5 110.232 117 109.996V92.6665C116.5 92.4305 116.04 92.0805 115.572 91.611C114.141 90.181 113.874 88.081 114.608 86.323L107.491 79.1665L88.6143 98.0615C87.0268 99.65 87.0368 102.224 88.6243 103.811L116.187 131.368C117.774 132.955 120.35 132.955 121.939 131.368L149.369 103.939C150.956 102.351 150.958 99.776 149.371 98.189V98.189Z" fill="#F34F29"/>
</svg>
