<svg width="204" height="189" viewBox="0 0 204 189" fill="none" xmlns="http://www.w3.org/2000/svg">
<path d="M102 37.7C105.148 37.7 107.7 35.148 107.7 32C107.7 28.852 105.148 26.3 102 26.3C98.8523 26.3 96.3003 28.852 96.3003 32C96.3003 35.148 98.8523 37.7 102 37.7Z" fill="#61DAFB"/>
<path d="M123.65 22.6C122.55 22.2 121.4 21.8 120.2 21.45C120.5 20.25 120.75 19.05 120.95 17.9C122 11.3 120.85 6.65 117.65 4.85C116.7 4.3 115.65 4.05 114.45 4.05C110.95 4.05 106.5 6.65 102 11C97.5002 6.65 93.0502 4.05 89.5502 4.05C88.3502 4.05 87.3002 4.3 86.3502 4.85C83.1502 6.7 82.0002 11.35 83.0502 17.9C83.2502 19.05 83.5002 20.25 83.8002 21.45C82.6002 21.8 81.4502 22.15 80.3502 22.6C74.1002 25 70.7002 28.3 70.7002 32C70.7002 35.7 74.1502 39 80.3502 41.4C81.4502 41.8 82.6002 42.2 83.8002 42.55C83.5002 43.75 83.2502 44.95 83.0502 46.1C82.0002 52.7 83.1502 57.35 86.3502 59.15C87.3002 59.7 88.3502 59.95 89.5502 59.95C93.1002 59.95 97.5502 57.35 102 53C106.5 57.35 110.95 59.95 114.45 59.95C115.65 59.95 116.7 59.7 117.65 59.15C120.85 57.3 122 52.65 120.95 46.1C120.75 44.95 120.5 43.75 120.2 42.55C121.4 42.2 122.55 41.85 123.65 41.4C129.9 39 133.3 35.7 133.3 32C133.3 28.3 129.9 25 123.65 22.6V22.6ZM116.25 7.35C118.3 8.55 119 12.25 118.15 17.5C118 18.55 117.75 19.65 117.45 20.8C114.85 20.2 112.1 19.8 109.2 19.55C107.5 17.15 105.75 15 104 13.05C107.7 9.4 111.45 6.9 114.5 6.9C115.15 6.9 115.75 7.05 116.25 7.35V7.35ZM110.65 37C109.75 38.6 108.7 40.2 107.6 41.8C105.75 41.95 103.9 42 102 42C100.05 42 98.2002 41.95 96.4002 41.8C95.3002 40.2 94.3002 38.6 93.4002 37C92.4502 35.35 91.5502 33.65 90.7502 32C91.5502 30.35 92.4502 28.65 93.4002 27C94.3002 25.4 95.3502 23.8 96.4502 22.2C98.3002 22.05 100.15 22 102.05 22C104 22 105.85 22.05 107.65 22.2C108.75 23.8 109.75 25.4 110.65 27C111.6 28.65 112.5 30.35 113.3 32C112.45 33.65 111.6 35.3 110.65 37ZM114.8 35.35C115.55 37.1 116.15 38.8 116.7 40.5C115 40.9 113.2 41.2 111.3 41.45C111.9 40.5 112.55 39.5 113.1 38.45C113.7 37.4 114.25 36.35 114.8 35.35ZM102 48.9C100.8 47.6 99.6502 46.2 98.5502 44.75C99.7002 44.8 100.85 44.85 102 44.85C103.15 44.85 104.3 44.8 105.45 44.75C104.35 46.2 103.2 47.6 102 48.9ZM92.7002 41.4C90.8002 41.15 89.0002 40.85 87.3002 40.45C87.8502 38.8 88.4502 37.05 89.2002 35.3C89.7502 36.3 90.3002 37.35 90.9002 38.35C91.5002 39.45 92.1002 40.4 92.7002 41.4V41.4ZM89.2002 28.65C88.4502 26.9 87.8502 25.2 87.3002 23.5C89.0002 23.1 90.8002 22.8 92.7002 22.55C92.1002 23.5 91.4502 24.5 90.9002 25.55C90.3002 26.6 89.7502 27.65 89.2002 28.65V28.65ZM102 15.1C103.2 16.4 104.35 17.8 105.45 19.25C104.3 19.2 103.15 19.15 102 19.15C100.85 19.15 99.7002 19.2 98.5502 19.25C99.6502 17.8 100.8 16.4 102 15.1ZM113.1 25.6L111.3 22.6C113.2 22.85 115 23.15 116.7 23.55C116.15 25.2 115.55 26.95 114.8 28.7C114.25 27.65 113.7 26.6 113.1 25.6ZM85.8502 17.5C85.0002 12.25 85.7002 8.55 87.7502 7.35C88.2502 7.05 88.8502 6.9 89.5002 6.9C92.5002 6.9 96.2502 9.35 100 13.05C98.2502 14.95 96.5002 17.15 94.8002 19.55C91.9002 19.8 89.1502 20.25 86.5502 20.8C86.2502 19.65 86.0502 18.55 85.8502 17.5V17.5ZM73.5002 32C73.5002 29.65 76.3502 27.15 81.3502 25.3C82.3502 24.9 83.4502 24.55 84.5502 24.25C85.3502 26.75 86.3502 29.4 87.5502 32.05C86.3502 34.7 85.3002 37.3 84.5502 39.8C77.6502 37.8 73.5002 34.8 73.5002 32ZM87.7502 56.65C85.7002 55.45 85.0002 51.75 85.8502 46.5C86.0002 45.45 86.2502 44.35 86.5502 43.2C89.1502 43.8 91.9002 44.2 94.8002 44.45C96.5002 46.85 98.2502 49 100 50.95C96.3002 54.6 92.5502 57.1 89.5002 57.1C88.8502 57.1 88.2502 56.95 87.7502 56.65ZM118.15 46.5C119 51.75 118.3 55.45 116.25 56.65C115.75 56.95 115.15 57.1 114.5 57.1C111.5 57.1 107.75 54.65 104 50.95C105.75 49.05 107.5 46.85 109.2 44.45C112.1 44.2 114.85 43.75 117.45 43.2C117.75 44.35 117.95 45.45 118.15 46.5V46.5ZM122.65 38.7C121.65 39.1 120.55 39.45 119.45 39.75C118.65 37.25 117.65 34.6 116.45 31.95C117.65 29.3 118.7 26.7 119.45 24.2C126.35 26.2 130.5 29.2 130.5 32C130.5 34.35 127.6 36.85 122.65 38.7Z" fill="#61DAFB"/>
<path d="M141 19.25H203V41.105H172V44.75H158.22V41.105H141V19.25ZM144.445 37.465H151.335V26.535H154.78V37.465H158.225V22.895H144.445V37.465ZM161.665 22.895V41.105H168.555V37.465H175.445V22.895H161.665ZM168.555 26.54H172V33.82H168.555V26.54ZM178.89 22.895V37.465H185.78V26.535H189.225V37.465H192.67V26.535H196.115V37.465H199.56V22.895H178.89Z" fill="#CB3837"/>
<path d="M58.1627 40.3745C58.0177 40.3745 57.8737 40.3365 57.7467 40.2625L56.4217 39.4785C56.2237 39.368 56.3202 39.3285 56.3857 39.306C56.6497 39.214 56.7032 39.1925 56.9847 39.0335C57.0142 39.017 57.0527 39.023 57.0832 39.041L58.1007 39.6455C58.1196 39.6556 58.1407 39.6609 58.1622 39.6609C58.1836 39.6609 58.2048 39.6556 58.2237 39.6455L62.1922 37.355C62.2109 37.344 62.2263 37.3283 62.237 37.3094C62.2477 37.2905 62.2533 37.2692 62.2532 37.2475V32.6675C62.2532 32.6455 62.2476 32.6239 62.2368 32.6047C62.226 32.5855 62.2105 32.5694 62.1917 32.558L58.2247 30.2695C58.2059 30.2592 58.1849 30.2538 58.1634 30.2538C58.142 30.2538 58.121 30.2592 58.1022 30.2695L54.1357 32.5585C54.1169 32.5699 54.1013 32.5858 54.0903 32.6049C54.0794 32.624 54.0735 32.6455 54.0732 32.6675V37.2475C54.0732 37.2915 54.0977 37.333 54.1357 37.3535L55.2227 37.982C55.8127 38.2765 56.1742 37.9295 56.1742 37.5805V33.058C56.1742 32.9945 56.2257 32.944 56.2892 32.944H56.7927C56.8552 32.944 56.9072 32.9945 56.9072 33.058V37.5805C56.9072 38.3675 56.4787 38.819 55.7322 38.819C55.5027 38.819 55.3222 38.819 54.8182 38.571L53.7777 37.972C53.6511 37.8982 53.5461 37.7925 53.4731 37.6655C53.4001 37.5385 53.3617 37.3945 53.3617 37.248V32.668C53.3617 32.3705 53.5202 32.093 53.7777 31.945L57.7462 29.6515C57.8741 29.5819 58.0173 29.5454 58.1629 29.5454C58.3085 29.5454 58.4518 29.5819 58.5797 29.6515L62.5482 31.945C62.8052 32.0935 62.9647 32.371 62.9647 32.668V37.248C62.9644 37.3945 62.9259 37.5384 62.8528 37.6654C62.7797 37.7924 62.6747 37.8981 62.5482 37.972L58.5797 40.263C58.453 40.3365 58.3091 40.375 58.1627 40.3745ZM59.3892 37.219C57.6517 37.219 57.2882 36.4215 57.2882 35.753C57.2883 35.7226 57.3005 35.6935 57.322 35.672C57.3436 35.6506 57.3728 35.6385 57.4032 35.6385H57.9162C57.9436 35.6384 57.9702 35.6481 57.9911 35.6659C58.012 35.6837 58.0259 35.7084 58.0302 35.7355C58.1072 36.258 58.3387 36.5215 59.3892 36.5215C60.2247 36.5215 60.5807 36.3325 60.5807 35.8885C60.5807 35.6325 60.4797 35.443 59.1807 35.3155C58.0947 35.208 57.4232 34.9685 57.4232 34.099C57.4232 33.2985 58.0982 32.8205 59.2292 32.8205C60.5007 32.8205 61.1297 33.262 61.2092 34.209C61.2104 34.2249 61.2084 34.241 61.2033 34.2561C61.1981 34.2712 61.1899 34.2851 61.1792 34.297C61.1683 34.3084 61.1553 34.3175 61.1409 34.3237C61.1265 34.33 61.1109 34.3333 61.0952 34.3335H60.5797C60.5537 34.3335 60.5284 34.3247 60.5082 34.3084C60.4879 34.2921 60.4738 34.2694 60.4682 34.244C60.3442 33.694 60.0442 33.5185 59.2287 33.5185C58.3162 33.5185 58.2102 33.837 58.2102 34.0745C58.2102 34.363 58.3352 34.447 59.5677 34.61C60.7872 34.7715 61.3667 34.9995 61.3667 35.857C61.3672 36.7235 60.6462 37.219 59.3892 37.219M49.9912 34.215C50.1477 34.1235 50.2442 33.9565 50.2442 33.775V32.598C50.2442 32.417 50.1482 32.25 49.9912 32.1585L45.8092 29.7305C45.7319 29.6855 45.644 29.6618 45.5546 29.6616C45.4651 29.6614 45.3772 29.6848 45.2997 29.7295L41.0917 32.159C41.0145 32.2037 40.9504 32.2678 40.9059 32.345C40.8613 32.4223 40.8378 32.5098 40.8377 32.599V37.457C40.8377 37.6395 40.9357 37.8085 41.0947 37.899L45.2762 40.2815C45.4302 40.37 45.6192 40.3705 45.7747 40.2845L48.3037 38.8785C48.3431 38.8567 48.3759 38.8247 48.3989 38.786C48.4219 38.7473 48.4341 38.7032 48.4344 38.6581C48.4347 38.6131 48.4231 38.5688 48.4006 38.5298C48.3782 38.4907 48.3458 38.4584 48.3067 38.436L44.0727 36.006C44.0339 35.9839 44.0016 35.9519 43.9791 35.9132C43.9566 35.8746 43.9447 35.8307 43.9447 35.786V34.263C43.9447 34.172 43.9932 34.0885 44.0717 34.0435L45.3902 33.2835C45.4287 33.2612 45.4724 33.2494 45.5169 33.2494C45.5615 33.2494 45.6052 33.2612 45.6437 33.2835L46.9622 34.0435C47.0009 34.0657 47.033 34.0976 47.0554 34.1361C47.0778 34.1747 47.0896 34.2184 47.0897 34.263V35.461C47.0894 35.5058 47.101 35.5499 47.1233 35.5887C47.1457 35.6276 47.1779 35.6598 47.2167 35.6822C47.2555 35.7045 47.2995 35.7162 47.3443 35.716C47.3891 35.7158 47.4331 35.7037 47.4717 35.681L49.9912 34.215M45.4922 33.987C45.5071 33.9787 45.5239 33.9743 45.5409 33.9743C45.558 33.9743 45.5748 33.9787 45.5897 33.987L46.3972 34.4535C46.4272 34.471 46.4457 34.5035 46.4457 34.538V35.4705C46.4457 35.5055 46.4272 35.5375 46.3972 35.555L45.5897 36.021C45.5749 36.0296 45.5581 36.0341 45.5409 36.0341C45.5238 36.0341 45.507 36.0296 45.4922 36.021L44.6852 35.555C44.6703 35.5465 44.6579 35.5342 44.6493 35.5194C44.6407 35.5045 44.6362 35.4877 44.6362 35.4705V34.538C44.6362 34.5035 44.6547 34.471 44.6852 34.4535L45.4922 33.987ZM34.5417 35.927C34.5417 35.972 34.5177 36.014 34.4782 36.037L33.0332 36.87C33.0139 36.8813 32.992 36.8873 32.9697 36.8873C32.9474 36.8873 32.9254 36.8813 32.9062 36.87L31.4612 36.037C31.4419 36.0258 31.4259 36.0098 31.4148 35.9905C31.4036 35.9712 31.3977 35.9493 31.3977 35.927V34.258C31.3977 34.213 31.4222 34.1705 31.4612 34.1475L32.9062 33.3135C32.9255 33.302 32.9475 33.2959 32.9699 33.2959C32.9924 33.2959 33.0144 33.302 33.0337 33.3135L34.4792 34.1475C34.4983 34.1589 34.5142 34.1751 34.5253 34.1945C34.5363 34.2138 34.5421 34.2357 34.5422 34.258V35.927H34.5417ZM34.9322 23.569C34.8934 23.5478 34.8499 23.5371 34.8057 23.5378C34.7616 23.5384 34.7184 23.5505 34.6803 23.5729C34.6422 23.5953 34.6106 23.6271 34.5885 23.6653C34.5664 23.7036 34.5546 23.7469 34.5542 23.791V30.2485C34.5541 30.2796 34.5458 30.3102 34.5303 30.3372C34.5148 30.3642 34.4925 30.3867 34.4657 30.4025C34.4386 30.418 34.4079 30.4261 34.3767 30.4261C34.3455 30.4261 34.3148 30.418 34.2877 30.4025L33.2337 29.795C33.1565 29.7506 33.069 29.7272 32.9799 29.7272C32.8909 29.7272 32.8034 29.7506 32.7262 29.795L28.5172 32.224C28.4399 32.2687 28.3756 32.3329 28.331 32.4102C28.2863 32.4875 28.2627 32.5752 28.2627 32.6645V37.524C28.2627 37.7055 28.3597 37.873 28.5167 37.9645L32.7257 40.395C32.8827 40.486 33.0767 40.486 33.2342 40.395L37.4442 37.9645C37.5214 37.9197 37.5854 37.8555 37.63 37.7782C37.6746 37.7009 37.6981 37.6132 37.6982 37.524V25.4105C37.6982 25.2265 37.5982 25.0565 37.4377 24.9665L34.9322 23.569M20.1192 29.7035C20.1964 29.6588 20.284 29.6353 20.3732 29.6353C20.4624 29.6353 20.55 29.6588 20.6272 29.7035L24.8362 32.132C24.9932 32.223 25.0902 32.391 25.0902 32.5725V37.4335C25.0902 37.615 24.9932 37.783 24.8362 37.874L20.6277 40.3045C20.5503 40.349 20.4627 40.3724 20.3734 40.3724C20.2842 40.3724 20.1965 40.349 20.1192 40.3045L15.9117 37.874C15.8345 37.8292 15.7704 37.765 15.7259 37.6877C15.6813 37.6104 15.6578 37.5227 15.6577 37.4335V32.572C15.6577 32.391 15.7547 32.223 15.9117 32.132L20.1192 29.7035M12.4652 32.532C12.4652 32.349 12.3692 32.181 12.2112 32.0905L8.00369 29.669C7.93303 29.628 7.85333 29.6052 7.77169 29.6025H7.72819C7.64657 29.6053 7.56688 29.6281 7.49619 29.669L3.28819 32.0905C3.21078 32.1353 3.14652 32.1997 3.10185 32.2772C3.05718 32.3547 3.03367 32.4426 3.03369 32.532L3.04269 39.052C3.04269 39.143 3.09019 39.2275 3.16969 39.2715C3.20776 39.2946 3.25142 39.3068 3.29594 39.3068C3.34046 39.3068 3.38412 39.2946 3.42219 39.2715L5.92219 37.8395C6.08019 37.7455 6.17669 37.58 6.17669 37.3985V34.3525C6.17669 34.1705 6.27269 34.003 6.43019 33.912L7.49519 33.299C7.57217 33.2538 7.65991 33.2301 7.74919 33.2305C7.83619 33.2305 7.92519 33.2525 8.00269 33.299L9.06669 33.912C9.22419 34.003 9.32119 34.1705 9.32119 34.3525V37.3985C9.32119 37.58 9.41869 37.7465 9.57569 37.8395L12.0757 39.2715C12.1142 39.2935 12.1579 39.3051 12.2023 39.305C12.2467 39.3049 12.2903 39.2931 12.3287 39.2709C12.3672 39.2487 12.3991 39.2168 12.4214 39.1784C12.4437 39.14 12.4555 39.0964 12.4557 39.052L12.4652 32.532" fill="#83CD29"/>
<path d="M115.545 80.82H119.045V97.0215C117.25 97.3625 115.932 97.499 114.501 97.499C110.228 97.499 108 95.567 108 91.862C108 88.294 110.364 85.976 114.023 85.976C114.591 85.976 115.023 86.021 115.545 86.1575V80.82ZM115.545 88.975C115.136 88.839 114.795 88.7935 114.364 88.7935C112.591 88.7935 111.569 89.8845 111.569 91.7935C111.569 93.657 112.546 94.68 114.341 94.68C114.728 94.68 115.046 94.657 115.546 94.589L115.545 88.975Z" fill="#C9F1E2"/>
<path d="M124.614 86.225V94.339C124.614 97.134 124.409 98.475 123.796 99.634C123.227 100.749 122.477 101.453 120.932 102.226L117.682 100.68C119.227 99.9525 119.977 99.3165 120.454 98.339C120.954 97.339 121.114 96.18 121.114 93.134V86.225H124.614ZM121.114 80.8385H124.614V84.4295H121.114V80.8385ZM126.728 87.0205C128.273 86.2935 129.751 85.9755 131.365 85.9755C133.16 85.9755 134.342 86.4525 134.865 87.3845C135.16 87.907 135.251 88.589 135.251 90.0435V97.157C133.683 97.3845 131.706 97.5435 130.251 97.5435C127.319 97.5435 126.001 96.5205 126.001 94.248C126.001 91.793 127.751 90.657 132.046 90.293V89.5205C132.046 88.884 131.728 88.657 130.842 88.657C129.547 88.657 128.092 89.0205 126.728 89.7255V87.0205H126.728ZM132.205 92.589C129.887 92.816 129.137 93.18 129.137 94.089C129.137 94.7705 129.569 95.089 130.524 95.089C131.046 95.089 131.524 95.044 132.205 94.93V92.589ZM136.956 86.7705C139.024 86.2255 140.729 85.9755 142.456 85.9755C144.252 85.9755 145.547 86.384 146.32 87.18C147.048 87.93 147.275 88.7475 147.275 90.498V97.3615H143.775V90.635C143.775 89.294 143.32 88.794 142.07 88.794C141.593 88.794 141.161 88.839 140.456 89.044V97.362H136.956V86.7705ZM148.635 99.2705C149.862 99.907 151.089 100.203 152.385 100.203C154.68 100.203 155.657 99.2705 155.657 97.043V96.975C154.976 97.316 154.294 97.4525 153.385 97.4525C150.316 97.4525 148.362 95.4295 148.362 92.225C148.362 88.2475 151.248 85.9975 156.362 85.9975C157.862 85.9975 159.248 86.1565 160.93 86.4975L159.732 89.0225C158.8 88.8405 159.657 88.9975 158.953 88.9295V89.2935L158.998 90.7705L159.021 92.6795C159.044 93.157 159.044 93.6345 159.066 94.1115V95.0665C159.066 98.0665 158.816 99.475 158.066 100.634C156.975 102.339 155.089 103.18 152.407 103.18C151.043 103.18 149.862 102.975 148.634 102.498V99.27L148.635 99.2705ZM155.59 88.8155H155.226C154.544 88.793 153.749 88.9745 153.203 89.3155C152.362 89.793 151.93 90.6565 151.93 91.884C151.93 93.634 152.794 94.634 154.339 94.634C154.817 94.634 155.203 94.543 155.657 94.407V93.202C155.657 92.7935 155.635 92.3385 155.635 91.8615L155.612 90.248L155.589 89.0885V88.816L155.59 88.8155ZM166.364 85.93C169.864 85.93 172 88.1345 172 91.7025C172 95.362 169.773 97.6575 166.227 97.6575C162.727 97.6575 160.568 95.4525 160.568 91.9075C160.568 88.225 162.796 85.9295 166.364 85.9295V85.93ZM166.295 94.839C167.636 94.839 168.432 93.725 168.432 91.7935C168.432 89.8845 167.659 88.748 166.319 88.748C164.932 88.748 164.136 89.862 164.136 91.793C164.136 93.7255 164.932 94.839 166.295 94.839Z" fill="#C9F1E2"/>
<path d="M102.002 137.801C93.4685 137.801 88.137 142.066 86.002 150.599C89.201 146.334 92.9355 144.734 97.201 145.801C99.6365 146.408 101.377 148.174 103.304 150.131C106.441 153.314 110.072 157 118.002 157C126.535 157 131.867 152.734 134.002 144.199C130.802 148.467 127.068 150.066 122.802 149C120.367 148.392 118.629 146.627 116.699 144.67C113.564 141.486 109.934 137.801 102.002 137.801V137.801ZM86.002 157C77.469 157 72.137 161.265 70.002 169.801C73.201 165.533 76.935 163.934 81.201 165C83.6365 165.608 85.377 167.373 87.3045 169.33C90.4415 172.514 94.0725 176.199 102.002 176.199C110.535 176.199 115.867 171.934 118.002 163.401C114.802 167.666 111.068 169.266 106.802 168.199C104.367 167.592 102.629 165.826 100.699 163.869C97.564 160.685 93.934 157 86.002 157Z" fill="#38B2AC"/>
<path d="M149.519 181.938L144.516 125.831H199.484L194.476 181.93L171.967 188.169L149.519 181.938Z" fill="#E44D26"/>
<path d="M172 183.4L190.189 178.357L194.468 130.418H172V183.4Z" fill="#F16529"/>
<path d="M172 151.227H162.894L162.265 144.18H172V137.299H154.745L154.91 139.145L156.601 158.109H172V151.227ZM172 169.099L171.97 169.107L164.306 167.037L163.817 161.55H156.908L157.872 172.354L171.969 176.268L172 176.259V169.099Z" fill="#EBEBEB"/>
<path d="M171.976 151.227V158.109H180.45L179.651 167.034L171.976 169.105V176.264L186.084 172.354L186.187 171.192L187.804 153.075L187.972 151.227H186.118H171.976ZM171.976 137.299V144.18H188.598L188.736 142.634L189.05 139.145L189.215 137.299H171.976Z" fill="white"/>
<path d="M9.40688 182.061L4.37988 125.676H59.6199L54.5879 182.053L31.9664 188.324L9.40688 182.061V182.061Z" fill="#1572B6"/>
<path d="M32.0005 183.531L50.28 178.463L54.5805 130.286H32.0005V183.531Z" fill="#33A9DC"/>
<path d="M32.0005 150.714H41.1515L41.7835 143.633H32.0005V136.717H49.3415L49.1755 138.573L47.4755 157.63H32.0005V150.714Z" fill="white"/>
<path d="M32.0415 168.674L32.011 168.683L24.3095 166.604L23.817 161.088H16.876L17.8445 171.947L32.01 175.878L32.0415 175.869V168.674V168.674Z" fill="#EBEBEB"/>
<path d="M40.5636 157.338L39.7306 166.598L32.0176 168.681V175.875L46.1946 171.946L46.2986 170.778L47.5016 157.338H40.5636Z" fill="white"/>
<path d="M32.0242 136.717V143.633H15.3202L15.1817 142.079L14.8667 138.573L14.7012 136.717H32.0242V136.717ZM32.0007 150.715V157.631H24.3962L24.2577 156.077L23.9422 152.571L23.7772 150.715H32.0007V150.715Z" fill="#EBEBEB"/>
<path d="M52.2649 98.91V85.37H52.9999V87.5C53.0868 87.4056 53.1669 87.3054 53.2399 87.2C53.5403 86.5766 54.0121 86.0516 54.6001 85.6868C55.1881 85.3219 55.868 85.1323 56.5599 85.14C58.2349 85.09 59.5949 85.71 60.3949 87.2C60.904 88.1256 61.1841 89.1596 61.2119 90.2156C61.2398 91.2715 61.0145 92.3189 60.5549 93.27C59.8099 94.94 57.9699 95.77 55.9999 95.465C55.3869 95.4128 54.7967 95.2079 54.2831 94.869C53.7696 94.5302 53.3491 94.0681 53.0599 93.525V98.91H52.2649ZM52.9999 90.16C53.0649 90.82 53.0899 91.29 53.1649 91.75C53.4549 93.56 54.5249 94.635 56.2049 94.83C56.9938 94.9597 57.8032 94.8118 58.4952 94.4115C59.1872 94.0113 59.719 93.3834 59.9999 92.635C60.3228 91.8652 60.4782 91.0355 60.4557 90.201C60.4333 89.3665 60.2336 88.5464 59.8699 87.795C59.57 87.1242 59.06 86.5692 58.4169 86.2138C57.7738 85.8584 57.0325 85.7219 56.3049 85.825C55.6219 85.8745 54.9712 86.1356 54.4434 86.572C53.9156 87.0084 53.5369 87.5984 53.3599 88.26C53.2033 88.8858 53.0831 89.5202 52.9999 90.16V90.16ZM76.2049 92C76.0936 92.9533 75.6398 93.8337 74.9279 94.4775C74.2161 95.1213 73.2946 95.4847 72.3349 95.5C69.2549 95.655 67.8099 93.61 67.5799 91.25C67.4203 89.9684 67.6284 88.6678 68.1799 87.5C68.564 86.6989 69.1931 86.0409 69.976 85.6211C70.759 85.2013 71.6552 85.0416 72.5349 85.165C73.3713 85.2359 74.1642 85.5681 74.8014 86.1146C75.4385 86.6611 75.8875 87.3941 76.0849 88.21C76.2414 88.953 76.3566 89.7042 76.4299 90.46H68.3349C68.1849 92.6 69.3349 94.32 70.9649 94.735C72.9949 95.235 74.7299 94.355 75.3599 92.425C75.4999 91.93 75.7549 91.86 76.2049 92V92ZM68.3349 89.775H75.5699C75.5249 87.495 74.1049 85.845 72.1799 85.82C69.9999 85.785 68.4299 87.375 68.3349 89.775ZM77.6949 92.05H78.4049C78.4312 92.5724 78.6009 93.0775 78.8955 93.5098C79.1902 93.942 79.5983 94.2846 80.0749 94.5C80.6735 94.7694 81.3252 94.9003 81.9814 94.883C82.6376 94.8656 83.2814 94.7006 83.8649 94.4C84.183 94.2566 84.4493 94.0192 84.6282 93.7196C84.807 93.4201 84.8896 93.073 84.8649 92.725C84.8832 92.3894 84.7916 92.057 84.6039 91.7782C84.4162 91.4994 84.1428 91.2894 83.8249 91.18C83.0449 90.89 82.2149 90.73 81.4199 90.475C80.5928 90.2394 79.7839 89.9436 78.9999 89.59C77.7199 88.965 77.6399 86.53 79.0899 85.76C79.8324 85.341 80.668 85.1146 81.5204 85.1015C82.3728 85.0884 83.215 85.289 83.9699 85.685C84.4273 85.9378 84.7967 86.3239 85.029 86.792C85.2613 87.2601 85.3453 87.7879 85.2699 88.305H84.6599C84.6599 88.275 84.6049 88.25 84.6049 88.22C84.5299 86.275 82.8999 85.675 81.1499 85.845C80.6275 85.9094 80.1201 86.0634 79.6499 86.3C79.3675 86.4292 79.1321 86.6429 78.9762 86.9115C78.8204 87.1802 78.7518 87.4907 78.7799 87.8C78.7808 88.1095 78.8774 88.4111 79.0564 88.6635C79.2354 88.916 79.4882 89.1068 79.7799 89.21C80.5499 89.49 81.3549 89.67 82.1449 89.89C82.7799 90.065 83.4399 90.18 84.0549 90.39C84.489 90.5323 84.8696 90.8031 85.1464 91.1664C85.4232 91.5298 85.5831 91.9687 85.6049 92.425C85.6791 92.9249 85.594 93.4355 85.3615 93.8843C85.129 94.3331 84.7611 94.6972 84.3099 94.925C82.6399 95.87 79.8899 95.62 78.6649 94.425C78.3545 94.1128 78.1089 93.7421 77.9424 93.3345C77.776 92.9269 77.6918 92.4903 77.6949 92.05ZM94.6049 88.305H93.9399C93.9399 88.215 93.9049 88.135 93.8949 88.06C93.8842 87.5615 93.7024 87.0819 93.3802 86.7014C93.058 86.3209 92.6148 86.0627 92.1249 85.97C91.2006 85.7048 90.2145 85.7522 89.3199 86.105C88.9663 86.2064 88.655 86.4194 88.4324 86.7123C88.2098 87.0052 88.088 87.3622 88.0849 87.73C88.0725 88.0912 88.1851 88.4457 88.4037 88.7336C88.6224 89.0214 88.9336 89.225 89.2849 89.31C90.2849 89.62 91.3099 89.81 92.3249 90.09C92.6539 90.1689 92.9778 90.2675 93.2949 90.385C93.7686 90.5544 94.1801 90.8628 94.4756 91.2699C94.7712 91.6769 94.9371 92.1636 94.9517 92.6664C94.9663 93.1692 94.8289 93.6647 94.5574 94.0882C94.2859 94.5117 93.893 94.8434 93.4299 95.04C92.7243 95.3604 91.9596 95.5299 91.1847 95.5377C90.4098 95.5454 89.6418 95.3912 88.9299 95.085C88.3445 94.8325 87.8505 94.4068 87.5144 93.865C87.1783 93.3233 87.0162 92.6916 87.0499 92.055H87.6999C87.8202 92.6351 88.08 93.1772 88.457 93.6343C88.834 94.0914 89.3167 94.4497 89.8633 94.6782C90.4099 94.9067 91.004 94.9985 91.5941 94.9457C92.1843 94.8929 92.7526 94.697 93.2499 94.375C93.5529 94.2176 93.8044 93.9766 93.9745 93.6806C94.1447 93.3846 94.2264 93.046 94.2099 92.705C94.225 92.3692 94.1302 92.0377 93.9398 91.7606C93.7494 91.4836 93.4738 91.2763 93.1549 91.17C92.3749 90.88 91.5449 90.725 90.7499 90.47C89.918 90.2381 89.1042 89.9456 88.3149 89.595C87.0649 88.98 86.9649 86.565 88.3899 85.795C89.1416 85.3585 89.9935 85.124 90.8627 85.1143C91.7319 85.1047 92.5888 85.3202 93.3499 85.74C93.7853 85.9999 94.1357 86.3807 94.3585 86.8361C94.5813 87.2915 94.6669 87.8018 94.6049 88.305V88.305ZM51.0499 95.255C50.7882 95.3541 50.4991 95.3539 50.2375 95.2544C49.9758 95.1549 49.7597 94.963 49.6299 94.715C48.8149 93.495 47.9149 92.33 47.0499 91.14L46.6749 90.64C45.6449 92.02 44.6149 93.345 43.6749 94.72C43.5525 94.957 43.348 95.1415 43.0997 95.239C42.8513 95.3365 42.576 95.3404 42.3249 95.25L46.1899 90.065L42.5949 85.38C42.8537 85.2866 43.1368 85.2853 43.3964 85.3764C43.656 85.4675 43.8763 85.6453 44.0199 85.88C44.8549 87.1 45.7799 88.265 46.6999 89.5C47.6249 88.275 48.5399 87.105 49.3949 85.895C49.5181 85.6618 49.7227 85.482 49.9697 85.3898C50.2168 85.2976 50.4891 85.2995 50.7349 85.395L49.3399 87.245C48.7149 88.07 48.0999 88.9 47.4499 89.705C47.3976 89.7519 47.3557 89.8093 47.327 89.8735C47.2983 89.9377 47.2835 90.0072 47.2835 90.0775C47.2835 90.1478 47.2983 90.2173 47.327 90.2815C47.3557 90.3457 47.3976 90.4031 47.4499 90.45C48.6449 92.035 49.8299 93.625 51.0499 95.255V95.255ZM67.4599 85.33V86.03C66.9542 85.9968 66.4472 86.0701 65.9715 86.245C65.4959 86.4199 65.0622 86.6926 64.6985 87.0455C64.3347 87.3984 64.049 87.8236 63.8598 88.2938C63.6706 88.7639 63.5821 89.2685 63.5999 89.775V95.275H62.8849V85.37H63.5849V87.4C64.4499 85.92 65.7849 85.37 67.4599 85.33V85.33ZM33.0649 90C33.1699 89.5 33.2349 88.955 33.3799 88.445C34.2449 85.37 37.7699 84.09 40.1949 85.995C41.6149 87.11 41.9699 88.69 41.8999 90.47H33.8999C33.7699 93.65 36.0649 95.57 38.9999 94.59C39.476 94.4197 39.9022 94.1335 40.2401 93.7573C40.5779 93.3811 40.8167 92.9266 40.9349 92.435C41.0899 91.935 41.3399 91.85 41.8149 91.995C41.7367 92.6037 41.5215 93.1867 41.1855 93.7003C40.8494 94.2139 40.4014 94.6445 39.8749 94.96C39.0051 95.4356 38.0072 95.6241 37.0239 95.4983C36.0405 95.3726 35.1221 94.9392 34.3999 94.26C33.6855 93.4567 33.2535 92.4418 33.1699 91.37C33.1699 91.2 33.1049 91.03 33.0699 90.87C33.0666 90.5733 33.0649 90.2833 33.0649 90V90ZM33.9099 89.785H41.1449C41.0999 87.48 39.6449 85.845 37.7049 85.83C35.5449 85.8 33.9999 87.4 33.9049 89.775L33.9099 89.785Z" fill="white"/>
</svg>
